RobotoDelta-wdthmax.ufo
<glyph name="numbersign" format="1">
  <advance width="1733.4"/>
  <unicode hex="0023"/>
  <outline>
    <contour>
      <point x="159.0" y="-20.0" type="line"/>
      <point x="317.40000000000003" y="-20.0" type="line"/>
      <point x="894.4" y="1476.0" type="line"/>
      <point x="736.0" y="1476.0" type="line"/>
    </contour>
    <contour>
      <point x="839.0" y="-20.0" type="line"/>
      <point x="997.4000000000001" y="-20.0" type="line"/>
      <point x="1575.4" y="1476.0" type="line"/>
      <point x="1417.0" y="1476.0" type="line"/>
    </contour>
    <contour>
      <point x="-31.0" y="398.06" type="line"/>
      <point x="1671.4" y="398.06" type="line"/>
      <point x="1671.4" y="546.14" type="line"/>
      <point x="-31.0" y="546.14" type="line"/>
    </contour>
    <contour>
      <point x="64.0" y="909.86" type="line"/>
      <point x="1765.4" y="909.86" type="line"/>
      <point x="1765.4" y="1057.94" type="line"/>
      <point x="64.0" y="1057.94" type="line"/>
    </contour>
  </outline>
</glyph>
<glyph name="dollar" format="1">
  <advance width="1214.72"/>
  <unicode hex="0024"/>
  <outline>
    <contour>
      <point x="-36.480000000000004" y="415.32" type="line" smooth="yes"/>
      <point x="-36.480000000000004" y="242.25"/>
      <point x="321.86287443267776" y="0.0"/>
      <point x="619.24" y="0.0" type="qcurve" smooth="yes"/>
      <point x="919.9259418070444" y="0.0"/>
      <point x="1261.08" y="242.06"/>
      <point x="1261.08" y="399.22" type="qcurve" smooth="yes"/>
      <point x="1261.08" y="572.93"/>
      <point x="1004.9091771398474" y="760.532876207169"/>
      <point x="711.8000000000001" y="823.03" type="qcurve" smooth="yes"/>
      <point x="399.08427463011617" y="893.4123716929637"/>
      <point x="200.36" y="986.83"/>
      <point x="200.36" y="1073.39" type="qcurve" smooth="yes"/>
      <point x="200.36" y="1166.1363448275863"/>
      <point x="397.36" y="1288.82"/>
      <point x="606.24" y="1288.82" type="qcurve" smooth="yes"/>
      <point x="814.24" y="1288.82"/>
      <point x="1025.24" y="1146.41"/>
      <point x="1025.24" y="1046.68" type="qcurve" smooth="yes"/>
      <point x="1025.24" y="1034.68" type="line"/>
      <point x="1227.96" y="1034.68" type="line"/>
      <point x="1227.96" y="1046.68" type="line" smooth="yes"/>
      <point x="1227.96" y="1200.48"/>
      <point x="890.8603154574133" y="1456.0"/>
      <point x="606.24" y="1456.0" type="qcurve" smooth="yes"/>
      <point x="307.43096153846153" y="1456.0"/>
      <point x="0.4000000000000057" y="1217.94"/>
      <point x="0.4000000000000057" y="1070.78" type="qcurve" smooth="yes"/>
      <point x="0.4000000000000057" y="906.07"/>
      <point x="230.04682824241138" y="733.0159866282143"/>
      <point x="536.6800000000001" y="665.06" type="qcurve" smooth="yes"/>
      <point x="848.9176148395405" y="595.9470311473151"/>
      <point x="1060.12" y="491.72"/>
      <point x="1060.12" y="396.61" type="qcurve" smooth="yes"/>
      <point x="1060.12" y="302.5992452830189"/>
      <point x="827.24" y="167.18"/>
      <point x="619.24" y="167.18" type="qcurve" smooth="yes"/>
      <point x="404.24" y="167.18"/>
      <point x="165.24" y="300.8409230769231"/>
      <point x="165.24" y="415.32" type="qcurve" smooth="yes"/>
      <point x="165.24" y="427.32" type="line"/>
      <point x="-36.480000000000004" y="427.32" type="line"/>
    </contour>
    <contour>
      <point x="535.16" y="-150.0" type="line"/>
      <point x="700.76" y="-150.0" type="line"/>
      <point x="700.76" y="90.0" type="line"/>
      <point x="689.5600000000001" y="100.0" type="line"/>
      <point x="689.5600000000001" y="728.0" type="line"/>
      <point x="535.16" y="728.0" type="line"/>
    </contour>
    <contour>
      <point x="543.96" y="728.0" type="line"/>
      <point x="698.36" y="728.0" type="line"/>
      <point x="698.36" y="1606.0" type="line"/>
      <point x="532.76" y="1606.0" type="line"/>
      <point x="532.76" y="1366.0" type="line"/>
      <point x="543.96" y="1356.0" type="line"/>
    </contour>
  </outline>
</glyph>
<glyph name="ampersand" format="1">
  <advance width="1616.48"/>
  <unicode hex="0026"/>
  <outline>
    <contour>
      <point x="80.0" y="380.0" type="qcurve" smooth="yes"/>
      <point x="80.0" y="219.1"/>
      <point x="399.92" y="-20.0"/>
      <point x="683.32" y="-20.0" type="qcurve" smooth="yes"/>
      <point x="1018.88" y="-20.0"/>
      <point x="1473.28" y="380.0"/>
      <point x="1473.28" y="674.0" type="qcurve"/>
      <point x="1281.12" y="674.0" type="line"/>
      <point x="1281.12" y="424.5"/>
      <point x="928.24" y="141.72"/>
      <point x="683.32" y="141.72" type="qcurve" smooth="yes"/>
      <point x="502.48" y="141.72"/>
      <point x="285.12" y="274.95"/>
      <point x="285.12" y="381.8" type="qcurve" smooth="yes"/>
      <point x="285.12" y="471.65"/>
      <point x="452.25606188642246" y="626.4720206288075"/>
      <point x="679.8" y="736.0" type="qcurve" smooth="yes"/>
      <point x="913.0" y="845.8" type="line" smooth="yes"/>
      <point x="1022.8800000000001" y="897.25"/>
      <point x="1174.28" y="1054.15"/>
      <point x="1174.28" y="1175.6" type="qcurve" smooth="yes"/>
      <point x="1174.28" y="1318.85"/>
      <point x="915.0" y="1486.0"/>
      <point x="720.12" y="1486.0" type="qcurve" smooth="yes"/>
      <point x="521.24" y="1486.0"/>
      <point x="242.96" y="1303.85"/>
      <point x="242.96" y="1154.6" type="qcurve" smooth="yes"/>
      <point x="242.96" y="1054.6"/>
      <point x="389.88" y="863.95"/>
      <point x="530.4" y="736.6" type="qcurve" smooth="yes"/>
      <point x="1328.12" y="0.0" type="line"/>
      <point x="1592.48" y="0.0" type="line"/>
      <point x="688.4" y="831.8" type="line" smooth="yes"/>
      <point x="562.36" y="948.92"/>
      <point x="443.12" y="1083.95"/>
      <point x="443.12" y="1154.6" type="qcurve" smooth="yes"/>
      <point x="443.12" y="1228.8"/>
      <point x="596.12" y="1324.28"/>
      <point x="720.12" y="1324.28" type="qcurve" smooth="yes"/>
      <point x="838.12" y="1324.28"/>
      <point x="973.12" y="1238.8"/>
      <point x="973.12" y="1164.6" type="qcurve" smooth="yes"/>
      <point x="973.12" y="1101.95"/>
      <point x="888.0" y="1013.65"/>
      <point x="779.0" y="964.0" type="qcurve" smooth="yes"/>
      <point x="560.8" y="866.2" type="line" smooth="yes"/>
      <point x="299.2" y="746.46"/>
      <point x="80.0" y="537.9"/>
    </contour>
  </outline>
</glyph>
<glyph name="plus" format="1">
  <advance width="1170.0"/>
  <unicode hex="002B"/>
  <outline>
    <contour>
      <point x="-36.400000000000006" y="586.78" type="line"/>
      <point x="1206.4" y="586.78" type="line"/>
      <point x="1206.4" y="761.22" type="line"/>
      <point x="-36.400000000000006" y="761.22" type="line"/>
    </contour>
    <contour>
      <point x="485.4" y="112.0" type="line"/>
      <point x="684.6" y="112.0" type="line"/>
      <point x="684.6" y="1236.0" type="line"/>
      <point x="485.4" y="1236.0" type="line"/>
    </contour>
  </outline>
</glyph>
<glyph name="two" format="1">
  <advance width="1390.0"/>
  <unicode hex="0032"/>
  <outline>
    <contour>
      <point x="91.99999999999999" y="0.0" type="line"/>
      <point x="1328.0" y="0.0" type="line"/>
      <point x="1328.0" y="168.96" type="line"/>
      <point x="398.20000000000005" y="168.96" type="line"/>
      <point x="933.4" y="593.65" type="line" smooth="yes"/>
      <point x="1087.2" y="715.95"/>
      <point x="1280.4" y="941.88"/>
      <point x="1280.4" y="1085.6" type="qcurve" smooth="yes"/>
      <point x="1280.4" y="1246.4"/>
      <point x="963.6" y="1486.0"/>
      <point x="704.0" y="1486.0" type="qcurve" smooth="yes"/>
      <point x="423.4" y="1486.0"/>
      <point x="89.59999999999998" y="1214.02"/>
      <point x="89.59999999999998" y="1026.4" type="qcurve" smooth="yes"/>
      <point x="89.59999999999998" y="1016.4" type="line"/>
      <point x="299.0" y="1016.4" type="line"/>
      <point x="299.0" y="1026.4" type="line" smooth="yes"/>
      <point x="299.0" y="1147.98"/>
      <point x="517.0" y="1317.02"/>
      <point x="704.0" y="1317.02" type="qcurve" smooth="yes"/>
      <point x="875.0" y="1317.02"/>
      <point x="1070.0" y="1173.35"/>
      <point x="1070.0" y="1075.6" type="qcurve" smooth="yes"/>
      <point x="1070.0" y="984.85"/>
      <point x="907.24" y="803.9"/>
      <point x="803.4" y="720.6" type="qcurve" smooth="yes"/>
      <point x="91.99999999999999" y="152.60000000000002" type="line"/>
    </contour>
  </outline>
</glyph>
<glyph name="three" format="1">
  <advance width="1396.0"/>
  <unicode hex="0033"/>
  <outline>
    <contour>
      <point x="59.11999999999998" y="383.6" type="line" smooth="yes"/>
      <point x="59.11999999999998" y="201.98"/>
      <point x="405.82677824267785" y="-30.0"/>
      <point x="677.0" y="-30.0" type="qcurve" smooth="yes"/>
      <point x="948.6429752066116" y="-30.0"/>
      <point x="1301.92" y="200.9419068736142"/>
      <point x="1301.92" y="402.71" type="qcurve" smooth="yes"/>
      <point x="1301.92" y="541.0245747800586"/>
      <point x="1110.2769785602054" y="729.7206766700117"/>
      <point x="951.8" y="762.0" type="qcurve"/>
      <point x="951.8" y="766.0" type="line"/>
      <point x="1098.807152119411" y="816.6283762059884"/>
      <point x="1237.16" y="998.74"/>
      <point x="1237.16" y="1098.2" type="qcurve" smooth="yes"/>
      <point x="1237.16" y="1269.01"/>
      <point x="923.8666666666667" y="1486.0"/>
      <point x="677.0" y="1486.0" type="qcurve" smooth="yes"/>
      <point x="430.94246575342464" y="1486.0"/>
      <point x="109.11999999999998" y="1257.93"/>
      <point x="109.11999999999998" y="1096.4" type="qcurve" smooth="yes"/>
      <point x="109.11999999999998" y="1086.4" type="line"/>
      <point x="316.0" y="1086.4" type="line"/>
      <point x="316.0" y="1096.4" type="line" smooth="yes"/>
      <point x="316.0" y="1203.266265060241"/>
      <point x="520.0" y="1317.92"/>
      <point x="677.0" y="1317.92" type="qcurve" smooth="yes"/>
      <point x="837.0" y="1317.92"/>
      <point x="1025.0" y="1203.6161643835617"/>
      <point x="1025.0" y="1087.3" type="qcurve" smooth="yes"/>
      <point x="1025.0" y="970.875"/>
      <point x="813.0" y="840.86"/>
      <point x="617.0" y="840.86" type="qcurve" smooth="yes"/>
      <point x="474.12" y="840.86" type="line"/>
      <point x="474.12" y="676.42" type="line"/>
      <point x="630.0" y="676.42" type="line" smooth="yes"/>
      <point x="839.0" y="676.42"/>
      <point x="1088.0" y="539.0147368421053"/>
      <point x="1088.0" y="403.6" type="qcurve" smooth="yes"/>
      <point x="1088.0" y="267.0105263157895"/>
      <point x="864.0" y="138.08"/>
      <point x="677.0" y="138.08" type="qcurve" smooth="yes"/>
      <point x="491.0" y="138.08"/>
      <point x="266.0" y="266.7263157894737"/>
      <point x="266.0" y="383.6" type="qcurve" smooth="yes"/>
      <point x="266.0" y="393.6" type="line"/>
      <point x="59.11999999999998" y="393.6" type="line"/>
    </contour>
  </outline>
</glyph>
<glyph name="four" format="1">
  <advance width="1370.0"/>
  <unicode hex="0034"/>
  <outline>
    <contour>
      <point x="932.0" y="0.0" type="line"/>
      <point x="1133.6" y="0.0" type="line"/>
      <point x="1133.6" y="1456.0" type="line"/>
      <point x="931.8399999999999" y="1456.0" type="line"/>
      <point x="34.399999999999984" y="479.88" type="line"/>
      <point x="34.399999999999984" y="340.02" type="line"/>
      <point x="1388.6" y="340.02" type="line"/>
      <point x="1388.6" y="507.2" type="line"/>
      <point x="1047.0" y="507.2" type="line"/>
      <point x="951.0" y="507.2" type="line"/>
      <point x="294.2" y="507.2" type="line"/>
      <point x="920.0" y="1190.09" type="line"/>
      <point x="932.0" y="1190.09" type="line"/>
      <point x="932.0" y="450.0" type="line"/>
      <point x="932.0" y="398.0" type="line"/>
    </contour>
  </outline>
</glyph>
<glyph name="five" format="1">
  <advance width="1390.0"/>
  <unicode hex="0035"/>
  <outline>
    <contour>
      <point x="78.87999999999998" y="368.6" type="line" smooth="yes"/>
      <point x="78.87999999999998" y="197.07"/>
      <point x="415.56340425531914" y="-30.0"/>
      <point x="687.0" y="-30.0" type="qcurve" smooth="yes"/>
      <point x="958.8148148148148" y="-30.0"/>
      <point x="1315.4" y="235.0"/>
      <point x="1315.4" y="465.0" type="qcurve" smooth="yes"/>
      <point x="1315.4" y="695.0"/>
      <point x="975.2" y="952.0"/>
      <point x="732.2" y="952.0" type="qcurve" smooth="yes"/>
      <point x="611.04" y="952.0"/>
      <point x="410.0284683972874" y="881.4628107787793"/>
      <point x="346.0" y="843.0" type="qcurve"/>
      <point x="389.8" y="1274.3" type="line"/>
      <point x="1219.2" y="1274.3" type="line"/>
      <point x="1219.2" y="1456.0" type="line"/>
      <point x="216.79999999999998" y="1456.0" type="line"/>
      <point x="142.79999999999998" y="727.3" type="line"/>
      <point x="318.0" y="647.18" type="line"/>
      <point x="399.74343312018175" y="716.660020181538"/>
      <point x="572.0" y="783.01"/>
      <point x="687.0" y="783.01" type="qcurve" smooth="yes"/>
      <point x="871.0" y="783.01"/>
      <point x="1105.0" y="620.1268292682927"/>
      <point x="1105.0" y="465.0" type="qcurve" smooth="yes"/>
      <point x="1105.0" y="309.78575667655787"/>
      <point x="871.0" y="138.08"/>
      <point x="687.0" y="138.08" type="qcurve" smooth="yes"/>
      <point x="504.0" y="138.08"/>
      <point x="283.0" y="261.5417142857143"/>
      <point x="283.0" y="368.6" type="qcurve" smooth="yes"/>
      <point x="283.0" y="378.6" type="line"/>
      <point x="78.87999999999998" y="378.6" type="line"/>
    </contour>
  </outline>
</glyph>
<glyph name="six" format="1">
  <advance width="1390.0"/>
  <unicode hex="0036"/>
  <outline>
    <contour>
      <point x="52.359999999999985" y="614.0" type="line" smooth="yes"/>
      <point x="52.359999999999985" y="274.0"/>
      <point x="441.534375" y="-30.0"/>
      <point x="713.0" y="-30.0" type="qcurve" smooth="yes"/>
      <point x="983.8512396694215" y="-30.0"/>
      <point x="1338.4" y="244.49919028340082"/>
      <point x="1338.4" y="464.9" type="qcurve" smooth="yes"/>
      <point x="1338.4" y="685.3024390243902"/>
      <point x="1023.56" y="957.8"/>
      <point x="765.4" y="957.8" type="qcurve" smooth="yes"/>
      <point x="497.08" y="957.8"/>
      <point x="174.79999999999998" y="685.3024390243902"/>
      <point x="174.79999999999998" y="464.9" type="qcurve"/>
      <point x="254.0" y="464.9" type="line"/>
      <point x="254.0" y="620.4697297297297"/>
      <point x="532.0" y="789.72"/>
      <point x="713.0" y="789.72" type="qcurve" smooth="yes"/>
      <point x="911.0" y="789.72"/>
      <point x="1128.0" y="620.4697297297297"/>
      <point x="1128.0" y="464.9" type="qcurve" smooth="yes"/>
      <point x="1128.0" y="309.2400892857143"/>
      <point x="911.0" y="138.08"/>
      <point x="713.0" y="138.08" type="qcurve" smooth="yes"/>
      <point x="517.0" y="138.08"/>
      <point x="260.0" y="349.50588235294117"/>
      <point x="260.0" y="604.0" type="qcurve" smooth="yes"/>
      <point x="260.0" y="654.0" type="line" smooth="yes"/>
      <point x="260.0" y="998.2982195845698"/>
      <point x="700.0" y="1317.02"/>
      <point x="1079.8" y="1317.02" type="qcurve" smooth="yes"/>
      <point x="1104.8" y="1317.02" type="line"/>
      <point x="1104.8" y="1486.0" type="line"/>
      <point x="1079.8" y="1486.0" type="line" smooth="yes"/>
      <point x="586.8" y="1486.0"/>
      <point x="52.359999999999985" y="1024.0"/>
      <point x="52.359999999999985" y="644.0" type="qcurve" smooth="yes"/>
    </contour>
  </outline>
</glyph>
<glyph name="nine" format="1">
  <advance width="1390.0"/>
  <unicode hex="0039"/>
  <outline>
    <contour>
      <point x="51.59999999999998" y="1001.1" type="qcurve" smooth="yes"/>
      <point x="51.59999999999998" y="784.6966804979253"/>
      <point x="367.55491856677526" y="518.2"/>
      <point x="624.6" y="518.2" type="qcurve" smooth="yes"/>
      <point x="892.9636363636364" y="518.2"/>
      <point x="1214.2" y="784.74"/>
      <point x="1214.2" y="1001.1" type="qcurve"/>
      <point x="1135.0" y="1001.1" type="line"/>
      <point x="1135.0" y="850.5312264150944"/>
      <point x="857.0" y="686.28"/>
      <point x="677.0" y="686.28" type="qcurve" smooth="yes"/>
      <point x="479.0" y="686.28"/>
      <point x="261.0" y="850.5312264150944"/>
      <point x="261.0" y="1001.1" type="qcurve" smooth="yes"/>
      <point x="261.0" y="1151.758971962617"/>
      <point x="479.0" y="1317.92"/>
      <point x="677.0" y="1317.92" type="qcurve" smooth="yes"/>
      <point x="872.0" y="1317.92"/>
      <point x="1129.0" y="1106.4941176470588"/>
      <point x="1129.0" y="852.0" type="qcurve" smooth="yes"/>
      <point x="1129.0" y="802.0" type="line" smooth="yes"/>
      <point x="1129.0" y="457.7017804154303"/>
      <point x="689.9427272727273" y="138.98000000000002"/>
      <point x="310.2" y="138.98000000000002" type="qcurve" smooth="yes"/>
      <point x="285.2" y="138.98000000000002" type="line"/>
      <point x="285.2" y="-30.0" type="line"/>
      <point x="310.2" y="-30.0" type="line" smooth="yes"/>
      <point x="803.2252631578947" y="-30.0"/>
      <point x="1337.64" y="432.0"/>
      <point x="1337.64" y="812.0" type="qcurve" smooth="yes"/>
      <point x="1337.64" y="842.0" type="line" smooth="yes"/>
      <point x="1337.64" y="1182.0"/>
      <point x="947.465625" y="1486.0"/>
      <point x="677.0" y="1486.0" type="qcurve" smooth="yes"/>
      <point x="405.1487603305785" y="1486.0"/>
      <point x="51.59999999999998" y="1217.5016528925619"/>
    </contour>
  </outline>
</glyph>
<glyph name="semicolon" format="1">
  <advance width="620.88"/>
  <unicode hex="003B"/>
  <outline>
    <contour>
      <point x="120.96000000000001" y="-220.88" type="qcurve"/>
      <point x="234.84" y="-299.01" type="line"/>
      <point x="317.44" y="-230.12"/>
      <point x="416.92" y="-39.82"/>
      <point x="416.92" y="73.78" type="qcurve" smooth="yes"/>
      <point x="416.92" y="229.9" type="line"/>
      <point x="223.96" y="229.9" type="line"/>
      <point x="223.96" y="73.78" type="line" smooth="yes"/>
      <point x="223.96" y="-18.2"/>
      <point x="170.76" y="-155.62"/>
    </contour>
    <contour>
      <point x="176.0" y="943.78" type="qcurve" smooth="yes"/>
      <point x="176.0" y="892.08"/>
      <point x="245.4" y="818.3"/>
      <point x="310.44" y="818.3" type="qcurve" smooth="yes"/>
      <point x="375.48" y="818.3"/>
      <point x="444.88" y="892.08"/>
      <point x="444.88" y="943.78" type="qcurve" smooth="yes"/>
      <point x="444.88" y="995.48"/>
      <point x="375.48" y="1069.26"/>
      <point x="310.44" y="1069.26" type="qcurve" smooth="yes"/>
      <point x="245.4" y="1069.26"/>
      <point x="176.0" y="995.48"/>
    </contour>
  </outline>
</glyph>
<glyph name="A" format="1">
  <advance width="1624.6"/>
  <unicode hex="0041"/>
  <outline>
    <contour>
      <point x="0.0" y="0.0" type="line"/>
      <point x="215.36" y="0.0" type="line"/>
      <point x="714.24" y="1088.48" type="line" smooth="yes"/>
      <point x="741.24" y="1148.48"/>
      <point x="783.24" y="1248.48"/>
      <point x="800.24" y="1298.48" type="qcurve"/>
      <point x="813.24" y="1298.48" type="line"/>
      <point x="831.24" y="1248.48"/>
      <point x="872.24" y="1148.48"/>
      <point x="899.24" y="1088.48" type="qcurve" smooth="yes"/>
      <point x="1393.6" y="0.0" type="line"/>
      <point x="1624.6" y="0.0" type="line"/>
      <point x="932.6" y="1465.1" type="line"/>
      <point x="693.0" y="1465.1" type="line"/>
    </contour>
    <contour>
      <point x="280.6" y="371.9" type="line"/>
      <point x="1337.12" y="371.9" type="line"/>
      <point x="1258.96" y="539.98" type="line"/>
      <point x="359.52" y="539.98" type="line"/>
    </contour>
    <contour>
      <point x="810.8" y="1432.0" type="move" name="top"/>
    </contour>
  </outline>
</glyph>
<glyph name="B" format="1">
  <advance width="1546.64"/>
  <unicode hex="0042"/>
  <outline>
    <contour>
      <point x="170.0" y="0.0" type="line"/>
      <point x="827.44" y="0.0" type="line" smooth="yes"/>
      <point x="1107.08" y="0.0"/>
      <point x="1446.64" y="220.0"/>
      <point x="1446.64" y="420.0" type="qcurve" smooth="yes"/>
      <point x="1446.64" y="560.0"/>
      <point x="1271.64" y="732.0"/>
      <point x="1133.64" y="764.0" type="qcurve"/>
      <point x="1133.64" y="768.0" type="line"/>
      <point x="1246.64" y="800.0"/>
      <point x="1398.64" y="950.0"/>
      <point x="1398.64" y="1070.0" type="qcurve" smooth="yes"/>
      <point x="1398.64" y="1270.0"/>
      <point x="1073.44" y="1456.0"/>
      <point x="789.44" y="1456.0" type="qcurve" smooth="yes"/>
      <point x="170.0" y="1456.0" type="line"/>
    </contour>
    <contour>
      <point x="377.44" y="166.28" type="line"/>
      <point x="377.44" y="676.22" type="line"/>
      <point x="827.44" y="676.22" type="line" smooth="yes"/>
      <point x="1039.2355801104973" y="676.22"/>
      <point x="1237.44" y="539.46"/>
      <point x="1237.44" y="422.16" type="qcurve" smooth="yes"/>
      <point x="1237.44" y="304.86"/>
      <point x="1039.44" y="166.28"/>
      <point x="827.44" y="166.28" type="qcurve" smooth="yes"/>
    </contour>
    <contour>
      <point x="377.44" y="839.78" type="line"/>
      <point x="377.44" y="1289.72" type="line"/>
      <point x="789.44" y="1289.72" type="line" smooth="yes"/>
      <point x="1002.4711614730878" y="1289.72"/>
      <point x="1189.44" y="1174.6"/>
      <point x="1189.44" y="1067.48" type="qcurve" smooth="yes"/>
      <point x="1189.44" y="960.36"/>
      <point x="1002.44" y="839.78"/>
      <point x="789.44" y="839.78" type="qcurve" smooth="yes"/>
    </contour>
  </outline>
</glyph>
<glyph name="D" format="1">
  <advance width="1679.88"/>
  <unicode hex="0044"/>
  <outline>
    <contour>
      <point x="170.0" y="0.0" type="line"/>
      <point x="728.96" y="0.0" type="line" smooth="yes"/>
      <point x="1087.5015007656968" y="0.0"/>
      <point x="1564.88" y="386.42735042735046"/>
      <point x="1564.88" y="712.0" type="qcurve" smooth="yes"/>
      <point x="1564.88" y="744.0" type="line" smooth="yes"/>
      <point x="1564.88" y="1070.0"/>
      <point x="1087.5015007656968" y="1456.0"/>
      <point x="728.96" y="1456.0" type="qcurve" smooth="yes"/>
      <point x="170.0" y="1456.0" type="line"/>
    </contour>
    <contour>
      <point x="380.96000000000004" y="168.08" type="line"/>
      <point x="380.96000000000004" y="1287.92" type="line"/>
      <point x="728.96" y="1287.92" type="line" smooth="yes"/>
      <point x="1013.953031358885" y="1287.92"/>
      <point x="1350.96" y="999.23"/>
      <point x="1350.96" y="744.0" type="qcurve" smooth="yes"/>
      <point x="1350.96" y="712.0" type="line" smooth="yes"/>
      <point x="1350.96" y="457.0825"/>
      <point x="1013.953031358885" y="168.08"/>
      <point x="728.96" y="168.08" type="qcurve" smooth="yes"/>
    </contour>
  </outline>
</glyph>
<glyph name="G" format="1">
  <advance width="1689.08"/>
  <unicode hex="0047"/>
  <outline>
    <contour>
      <point x="115.0" y="712.0" type="line" smooth="yes"/>
      <point x="115.0" y="361.8426966292135"/>
      <point x="556.8" y="-30.0"/>
      <point x="928.9200000000001" y="-30.0" type="qcurve" smooth="yes"/>
      <point x="1173.1745454545455" y="-30.0"/>
      <point x="1520.9843202938566" y="93.04719622590225"/>
      <point x="1609.08" y="165.4" type="qcurve"/>
      <point x="1609.08" y="733.58" type="line"/>
      <point x="903.9200000000001" y="733.58" type="line"/>
      <point x="903.9200000000001" y="565.5" type="line"/>
      <point x="1403.4" y="565.5" type="line"/>
      <point x="1403.4" y="239.99" type="line"/>
      <point x="1305.6465119038749" y="185.74917327993052"/>
      <point x="1081.11962529274" y="143.99"/>
      <point x="928.9200000000001" y="143.99" type="qcurve" smooth="yes"/>
      <point x="642.5316152450091" y="143.99"/>
      <point x="328.92" y="446.6522627737226"/>
      <point x="328.92" y="712.0" type="qcurve" smooth="yes"/>
      <point x="328.92" y="744.0" type="line" smooth="yes"/>
      <point x="328.92" y="1009.3331386861314"/>
      <point x="644.4287719298245" y="1312.01"/>
      <point x="890.9200000000001" y="1312.01" type="qcurve" smooth="yes"/>
      <point x="1139.5523851203502" y="1312.01"/>
      <point x="1383.2561379735134" y="1134.963554049897"/>
      <point x="1395.92" y="1037.3" type="qcurve" smooth="yes"/>
      <point x="1396.92" y="1027.3" type="line"/>
      <point x="1609.08" y="1027.3" type="line"/>
      <point x="1608.08" y="1037.3" type="line" smooth="yes"/>
      <point x="1584.96" y="1218.47"/>
      <point x="1225.3304129263913" y="1486.0"/>
      <point x="890.9200000000001" y="1486.0" type="qcurve" smooth="yes"/>
      <point x="557.4" y="1486.0"/>
      <point x="115.0" y="1094.0"/>
      <point x="115.0" y="744.0" type="qcurve" smooth="yes"/>
    </contour>
  </outline>
</glyph>
<glyph name="J" format="1">
  <advance width="1367.92"/>
  <unicode hex="004A"/>
  <outline>
    <contour>
      <point x="25.0" y="459.9" type="line" smooth="yes"/>
      <point x="25.0" y="232.31"/>
      <point x="354.56" y="-30.0"/>
      <point x="618.96" y="-30.0" type="qcurve" smooth="yes"/>
      <point x="883.36" y="-30.0"/>
      <point x="1212.92" y="247.2330769230769"/>
      <point x="1212.92" y="484.9" type="qcurve" smooth="yes"/>
      <point x="1212.92" y="1456.0" type="line"/>
      <point x="1001.96" y="1456.0" type="line"/>
      <point x="1001.96" y="484.9" type="line" smooth="yes"/>
      <point x="1001.96" y="320.8450171821305"/>
      <point x="797.3122388059702" y="143.99"/>
      <point x="618.96" y="143.99" type="qcurve" smooth="yes"/>
      <point x="440.6077611940299" y="143.99"/>
      <point x="235.96" y="305.9"/>
      <point x="235.96" y="459.9" type="qcurve" smooth="yes"/>
      <point x="235.96" y="469.9" type="line"/>
      <point x="25.0" y="469.9" type="line"/>
    </contour>
  </outline>
</glyph>
<glyph name="N" format="1">
  <advance width="1766.88"/>
  <unicode hex="004E"/>
  <outline>
    <contour>
      <point x="170.0" y="0.0" type="line"/>
      <point x="371.44" y="0.0" type="line"/>
      <point x="371.44" y="1047.4" type="line" smooth="yes"/>
      <point x="371.44" y="1077.4"/>
      <point x="367.44" y="1152.4"/>
      <point x="363.44" y="1182.4" type="qcurve"/>
      <point x="373.44" y="1182.4" type="line"/>
      <point x="387.44" y="1157.4"/>
      <point x="430.44" y="1097.4"/>
      <point x="455.44" y="1067.4" type="qcurve" smooth="yes"/>
      <point x="1371.44" y="0.0" type="line"/>
      <point x="1596.88" y="0.0" type="line"/>
      <point x="1596.88" y="1456.0" type="line"/>
      <point x="1395.44" y="1456.0" type="line"/>
      <point x="1395.44" y="408.6" type="line" smooth="yes"/>
      <point x="1395.44" y="378.6"/>
      <point x="1399.44" y="303.6"/>
      <point x="1403.44" y="273.6" type="qcurve"/>
      <point x="1393.44" y="273.6" type="line"/>
      <point x="1379.44" y="298.6"/>
      <point x="1336.44" y="358.6"/>
      <point x="1311.44" y="388.6" type="qcurve" smooth="yes"/>
      <point x="395.44" y="1456.0" type="line"/>
      <point x="170.0" y="1456.0" type="line"/>
    </contour>
    <contour>
      <point x="895.94" y="1432.0" type="move" name="top"/>
    </contour>
  </outline>
</glyph>
<glyph name="O" format="1">
  <advance width="1807.8400000000001"/>
  <unicode hex="004F"/>
  <outline>
    <contour>
      <point x="115.0" y="712.0" type="line" smooth="yes"/>
      <point x="115.0" y="361.8426966292135"/>
      <point x="557.16" y="-30.0"/>
      <point x="903.9200000000001" y="-30.0" type="qcurve" smooth="yes"/>
      <point x="1249.6653658536586" y="-30.0"/>
      <point x="1692.8400000000001" y="361.8426966292135"/>
      <point x="1692.8400000000001" y="712.0" type="qcurve" smooth="yes"/>
      <point x="1692.8400000000001" y="744.0" type="line" smooth="yes"/>
      <point x="1692.8400000000001" y="1094.0"/>
      <point x="1249.6653658536586" y="1486.0"/>
      <point x="903.9200000000001" y="1486.0" type="qcurve" smooth="yes"/>
      <point x="557.16" y="1486.0"/>
      <point x="115.0" y="1094.0"/>
      <point x="115.0" y="744.0" type="qcurve" smooth="yes"/>
    </contour>
    <contour>
      <point x="328.92" y="712.0" type="qcurve" smooth="yes"/>
      <point x="328.92" y="744.0" type="line" smooth="yes"/>
      <point x="328.92" y="1009.1229197080291"/>
      <point x="643.7488973384031" y="1311.56"/>
      <point x="903.9200000000001" y="1311.56" type="qcurve" smooth="yes"/>
      <point x="1162.997946768061" y="1311.56"/>
      <point x="1478.92" y="1009.1229197080291"/>
      <point x="1478.92" y="744.0" type="qcurve" smooth="yes"/>
      <point x="1478.92" y="712.0" type="line" smooth="yes"/>
      <point x="1478.92" y="446.8624817518248"/>
      <point x="1162.997946768061" y="144.44"/>
      <point x="903.9200000000001" y="144.44" type="qcurve" smooth="yes"/>
      <point x="643.7488973384031" y="144.44"/>
      <point x="328.92" y="446.8624817518248"/>
    </contour>
    <contour>
      <point x="903.6700000000001" y="1432.0" type="move" name="top"/>
    </contour>
  </outline>
</glyph>
<glyph name="Q" format="1">
  <advance width="1807.8400000000001"/>
  <unicode hex="0051"/>
  <outline>
    <contour>
      <point x="115.0" y="712.0" type="line" smooth="yes"/>
      <point x="115.0" y="362.0"/>
      <point x="557.16" y="-30.0"/>
      <point x="903.9200000000001" y="-30.0" type="qcurve" smooth="yes"/>
      <point x="1249.68" y="-30.0"/>
      <point x="1692.8400000000001" y="362.0"/>
      <point x="1692.8400000000001" y="712.0" type="qcurve" smooth="yes"/>
      <point x="1692.8400000000001" y="744.0" type="line" smooth="yes"/>
      <point x="1692.8400000000001" y="1094.0"/>
      <point x="1249.68" y="1486.0"/>
      <point x="903.9200000000001" y="1486.0" type="qcurve" smooth="yes"/>
      <point x="557.16" y="1486.0"/>
      <point x="115.0" y="1094.0"/>
      <point x="115.0" y="744.0" type="qcurve" smooth="yes"/>
    </contour>
    <contour>
      <point x="328.92" y="712.0" type="qcurve" smooth="yes"/>
      <point x="328.92" y="744.0" type="line" smooth="yes"/>
      <point x="328.92" y="1009.14"/>
      <point x="643.9200000000001" y="1311.56"/>
      <point x="903.9200000000001" y="1311.56" type="qcurve" smooth="yes"/>
      <point x="1162.92" y="1311.56"/>
      <point x="1478.92" y="1009.14"/>
      <point x="1478.92" y="744.0" type="qcurve" smooth="yes"/>
      <point x="1478.92" y="712.0" type="line" smooth="yes"/>
      <point x="1478.92" y="446.86"/>
      <point x="1162.92" y="144.44"/>
      <point x="903.9200000000001" y="144.44" type="qcurve" smooth="yes"/>
      <point x="643.9200000000001" y="144.44"/>
      <point x="328.92" y="446.86"/>
    </contour>
    <contour>
      <point x="1504.0" y="-252.7" type="line"/>
      <point x="1661.44" y="-112.8" type="line"/>
      <point x="1212.88" y="164.9" type="line"/>
      <point x="1062.44" y="30.0" type="line"/>
    </contour>
  </outline>
</glyph>
<glyph name="S" format="1">
  <advance width="1521.16"/>
  <unicode hex="0053"/>
  <outline>
    <contour>
      <point x="90.0" y="402.5" type="line" smooth="yes"/>
      <point x="90.0" y="202.34"/>
      <point x="463.44" y="-30.0"/>
      <point x="771.96" y="-30.0" type="qcurve" smooth="yes"/>
      <point x="1080.8400000000001" y="-30.0"/>
      <point x="1441.16" y="203.15"/>
      <point x="1441.16" y="385.4" type="qcurve" smooth="yes"/>
      <point x="1441.16" y="567.65"/>
      <point x="1195.92" y="761.9"/>
      <point x="868.76" y="831.2" type="qcurve" smooth="yes"/>
      <point x="541.6" y="900.5"/>
      <point x="336.96000000000004" y="999.1"/>
      <point x="336.96000000000004" y="1087.3" type="qcurve" smooth="yes"/>
      <point x="336.96000000000004" y="1193.7"/>
      <point x="542.8960000000001" y="1312.01"/>
      <point x="758.96" y="1312.01" type="qcurve" smooth="yes"/>
      <point x="975.8362886597938" y="1312.01"/>
      <point x="1194.96" y="1172.98"/>
      <point x="1194.96" y="1059.5" type="qcurve" smooth="yes"/>
      <point x="1194.96" y="1047.5" type="line"/>
      <point x="1405.92" y="1047.5" type="line"/>
      <point x="1405.92" y="1059.5" type="line" smooth="yes"/>
      <point x="1405.92" y="1237.39"/>
      <point x="1055.72" y="1486.0"/>
      <point x="758.96" y="1486.0" type="qcurve" smooth="yes"/>
      <point x="462.96000000000004" y="1486.0"/>
      <point x="127.76" y="1256.85"/>
      <point x="127.76" y="1084.6" type="qcurve" smooth="yes"/>
      <point x="127.76" y="912.35"/>
      <point x="354.48" y="729.74"/>
      <point x="687.1600000000001" y="658.8" type="qcurve" smooth="yes"/>
      <point x="1019.84" y="587.86"/>
      <point x="1231.96" y="480.36"/>
      <point x="1231.96" y="382.7" type="qcurve" smooth="yes"/>
      <point x="1231.96" y="275.94"/>
      <point x="995.2609708737864" y="143.99"/>
      <point x="771.96" y="143.99" type="qcurve" smooth="yes"/>
      <point x="549.2649645390071" y="143.99"/>
      <point x="300.96000000000004" y="273.29"/>
      <point x="300.96000000000004" y="402.5" type="qcurve" smooth="yes"/>
      <point x="300.96000000000004" y="414.5" type="line"/>
      <point x="90.0" y="414.5" type="line"/>
    </contour>
  </outline>
</glyph>
<glyph name="W" format="1">
  <advance width="2286.8"/>
  <unicode hex="0057"/>
  <outline>
    <contour>
      <point x="527.76" y="-9.1" type="line"/>
      <point x="758.12" y="-9.1" type="line"/>
      <point x="1113.4" y="1120.1" type="line" smooth="yes"/>
      <point x="1124.4" y="1154.1"/>
      <point x="1136.4" y="1215.1"/>
      <point x="1139.4" y="1248.1" type="qcurve"/>
      <point x="1147.4" y="1248.1" type="line"/>
      <point x="1151.4" y="1215.1"/>
      <point x="1162.4" y="1154.1"/>
      <point x="1173.4" y="1120.1" type="qcurve" smooth="yes"/>
      <point x="1529.68" y="-9.1" type="line"/>
      <point x="1760.04" y="-9.1" type="line"/>
      <point x="2236.8" y="1456.0" type="line"/>
      <point x="2025.04" y="1456.0" type="line"/>
      <point x="1689.04" y="347.99" type="line" smooth="yes"/>
      <point x="1679.04" y="313.99"/>
      <point x="1671.04" y="252.99"/>
      <point x="1667.04" y="219.99" type="qcurve"/>
      <point x="1659.04" y="219.99" type="line"/>
      <point x="1656.04" y="252.99"/>
      <point x="1648.04" y="313.99"/>
      <point x="1637.04" y="347.99" type="qcurve" smooth="yes"/>
      <point x="1276.52" y="1456.0" type="line"/>
      <point x="1021.6800000000001" y="1456.0" type="line"/>
      <point x="672.9200000000001" y="347.90000000000003" type="line" smooth="yes"/>
      <point x="661.9200000000001" y="313.90000000000003"/>
      <point x="654.9200000000001" y="252.9"/>
      <point x="650.9200000000001" y="219.9" type="qcurve"/>
      <point x="642.9200000000001" y="219.9" type="line"/>
      <point x="639.9200000000001" y="252.9"/>
      <point x="631.9200000000001" y="313.90000000000003"/>
      <point x="620.9200000000001" y="347.90000000000003" type="qcurve" smooth="yes"/>
      <point x="272.92" y="1456.0" type="line"/>
      <point x="50.0" y="1456.0" type="line"/>
    </contour>
  </outline>
</glyph>
<glyph name="a" format="1">
  <advance width="1475.52"/>
  <unicode hex="0061"/>
  <outline>
    <contour>
      <point x="90.0" y="310.0" type="qcurve" smooth="yes"/>
      <point x="90.0" y="150.0"/>
      <point x="382.5976653696498" y="-20.0"/>
      <point x="591.28" y="-20.0" type="qcurve" smooth="yes"/>
      <point x="796.2456185718484" y="-20.0"/>
      <point x="1063.3875222450802" y="75.97610400485623"/>
      <point x="1116.48" y="145.0" type="qcurve"/>
      <point x="1120.48" y="105.0"/>
      <point x="1151.48" y="25.0"/>
      <point x="1171.48" y="0.0" type="qcurve"/>
      <point x="1366.96" y="0.0" type="line"/>
      <point x="1366.96" y="16.0" type="line"/>
      <point x="1342.96" y="60.0"/>
      <point x="1315.96" y="175.0"/>
      <point x="1315.96" y="240.0" type="qcurve" smooth="yes"/>
      <point x="1315.96" y="720.0" type="line" smooth="yes"/>
      <point x="1315.96" y="900.0"/>
      <point x="1021.24" y="1082.0"/>
      <point x="754.48" y="1082.0" type="qcurve" smooth="yes"/>
      <point x="487.96000000000004" y="1082.0"/>
      <point x="173.88" y="893.9211538461539"/>
      <point x="173.88" y="768.2" type="qcurve" smooth="yes"/>
      <point x="173.88" y="763.2" type="line"/>
      <point x="377.48" y="763.2" type="line"/>
      <point x="377.48" y="768.2" type="line" smooth="yes"/>
      <point x="377.48" y="830.685"/>
      <point x="548.4370957095709" y="925.72"/>
      <point x="747.48" y="925.72" type="qcurve" smooth="yes"/>
      <point x="947.2510437710438" y="925.72"/>
      <point x="1111.48" y="811.31"/>
      <point x="1111.48" y="720.0" type="qcurve" smooth="yes"/>
      <point x="1111.48" y="650.7" type="line"/>
      <point x="720.48" y="650.7" type="line" smooth="yes"/>
      <point x="445.44" y="650.7"/>
      <point x="90.0" y="471.26"/>
    </contour>
    <contour>
      <point x="294.48" y="320.0" type="qcurve" smooth="yes"/>
      <point x="294.48" y="407.6030612244898"/>
      <point x="524.500725388601" y="510.78"/>
      <point x="747.48" y="510.78" type="qcurve" smooth="yes"/>
      <point x="1111.48" y="510.78" type="line"/>
      <point x="1111.48" y="369.5" type="line"/>
      <point x="1111.48" y="285.832"/>
      <point x="826.6344217687075" y="136.28"/>
      <point x="650.08" y="136.28" type="qcurve" smooth="yes"/>
      <point x="466.77756238558635" y="136.28"/>
      <point x="294.48" y="233.88125"/>
    </contour>
    <contour>
      <point x="751.7600000000001" y="1052.0" type="move" name="top"/>
    </contour>
  </outline>
</glyph>
<glyph name="g" format="1">
  <advance width="1544.68"/>
  <unicode hex="0067"/>
  <outline>
    <contour>
      <point x="142.8" y="-284.0" type="line"/>
      <point x="247.48000000000002" y="-349.82"/>
      <point x="555.4" y="-436.0"/>
      <point x="736.2" y="-436.0" type="qcurve" smooth="yes"/>
      <point x="1030.3600000000001" y="-436.0"/>
      <point x="1396.68" y="-196.31"/>
      <point x="1396.68" y="27.200000000000006" type="qcurve" smooth="yes"/>
      <point x="1396.68" y="1052.0" type="line"/>
      <point x="1209.2" y="1052.0" type="line"/>
      <point x="1198.2" y="885.0" type="line"/>
      <point x="1197.2" y="885.0" type="line"/>
      <point x="1132.08" y="962.18"/>
      <point x="872.08" y="1072.0"/>
      <point x="697.4" y="1072.0" type="qcurve" smooth="yes"/>
      <point x="418.8" y="1072.0"/>
      <point x="85.0" y="772.0"/>
      <point x="85.0" y="542.0" type="qcurve" smooth="yes"/>
      <point x="85.0" y="510.0" type="line" smooth="yes"/>
      <point x="85.0" y="280.0"/>
      <point x="418.8" y="-20.0"/>
      <point x="697.4" y="-20.0" type="qcurve" smooth="yes"/>
      <point x="873.08" y="-20.0"/>
      <point x="1116.96" y="75.73"/>
      <point x="1192.2" y="154.0" type="qcurve"/>
      <point x="1192.2" y="27.200000000000006" type="line" smooth="yes"/>
      <point x="1192.2" y="-111.99"/>
      <point x="944.2405063291139" y="-265.18"/>
      <point x="729.6" y="-265.18" type="qcurve" smooth="yes"/>
      <point x="570.0" y="-265.18"/>
      <point x="313.8" y="-191.09"/>
      <point x="245.16" y="-135.0" type="qcurve"/>
    </contour>
    <contour>
      <point x="294.20000000000005" y="510.0" type="qcurve" smooth="yes"/>
      <point x="294.20000000000005" y="542.0" type="line" smooth="yes"/>
      <point x="294.20000000000005" y="697.5"/>
      <point x="517.2" y="909.38"/>
      <point x="756.2" y="909.38" type="qcurve" smooth="yes"/>
      <point x="917.2" y="909.38"/>
      <point x="1142.2" y="782.38"/>
      <point x="1192.2" y="699.38" type="qcurve"/>
      <point x="1192.2" y="352.62" type="line"/>
      <point x="1143.2" y="269.62"/>
      <point x="917.2" y="142.62"/>
      <point x="756.2" y="142.62" type="qcurve" smooth="yes"/>
      <point x="517.2" y="142.62"/>
      <point x="294.20000000000005" y="354.5"/>
    </contour>
  </outline>
</glyph>
<glyph name="i" format="1">
  <advance width="518.48"/>
  <unicode hex="0069"/>
  <outline>
    <contour>
      <point x="157.0" y="0.0" type="line"/>
      <point x="361.48" y="0.0" type="line"/>
      <point x="361.48" y="1052.0" type="line"/>
      <point x="157.0" y="1052.0" type="line"/>
    </contour>
    <contour>
      <point x="137.12" y="1363.7" type="qcurve" smooth="yes"/>
      <point x="137.12" y="1316.0"/>
      <point x="200.36" y="1251.4"/>
      <point x="259.24" y="1251.4" type="qcurve" smooth="yes"/>
      <point x="318.12" y="1251.4"/>
      <point x="381.36" y="1316.0"/>
      <point x="381.36" y="1363.7" type="qcurve" smooth="yes"/>
      <point x="381.36" y="1411.4"/>
      <point x="318.12" y="1476.0"/>
      <point x="259.24" y="1476.0" type="qcurve" smooth="yes"/>
      <point x="200.36" y="1476.0"/>
      <point x="137.12" y="1411.4"/>
    </contour>
  </outline>
</glyph>
<glyph name="j" format="1">
  <advance width="518.48"/>
  <unicode hex="006A"/>
  <outline>
    <contour>
      <point x="-217.0" y="-410.0" type="line"/>
      <point x="-186.92703148851768" y="-417.9622171412433"/>
      <point x="-78.18536585365854" y="-436.0"/>
      <point x="-21.599999999999994" y="-436.0" type="qcurve" smooth="yes"/>
      <point x="166.33967213114755" y="-436.0"/>
      <point x="361.48" y="-270.0"/>
      <point x="361.48" y="-90.0" type="qcurve" smooth="yes"/>
      <point x="361.48" y="1052.0" type="line"/>
      <point x="157.0" y="1052.0" type="line"/>
      <point x="157.0" y="-120.63999999999999" type="line" smooth="yes"/>
      <point x="157.0" y="-200.64"/>
      <point x="49.0" y="-270.64"/>
      <point x="-48.0" y="-270.64" type="qcurve" smooth="yes"/>
      <point x="-89.0" y="-270.64"/>
      <point x="-190.0" y="-256.64"/>
      <point x="-217.0" y="-250.64" type="qcurve"/>
    </contour>
    <contour>
      <point x="137.12" y="1363.7" type="qcurve" smooth="yes"/>
      <point x="137.12" y="1316.0"/>
      <point x="200.36" y="1251.4"/>
      <point x="259.24" y="1251.4" type="qcurve" smooth="yes"/>
      <point x="318.12" y="1251.4"/>
      <point x="381.36" y="1316.0"/>
      <point x="381.36" y="1363.7" type="qcurve" smooth="yes"/>
      <point x="381.36" y="1411.4"/>
      <point x="318.12" y="1476.0"/>
      <point x="259.24" y="1476.0" type="qcurve" smooth="yes"/>
      <point x="200.36" y="1476.0"/>
      <point x="137.12" y="1411.4"/>
    </contour>
  </outline>
</glyph>
<glyph name="p" format="1">
  <advance width="1544.68"/>
  <unicode hex="0070"/>
  <outline>
    <contour>
      <point x="148.0" y="-416.0" type="line"/>
      <point x="352.48" y="-416.0" type="line"/>
      <point x="352.48" y="154.0" type="line"/>
      <point x="427.72" y="75.73"/>
      <point x="671.6" y="-20.0"/>
      <point x="847.28" y="-20.0" type="qcurve" smooth="yes"/>
      <point x="1125.88" y="-20.0"/>
      <point x="1459.68" y="280.0"/>
      <point x="1459.68" y="510.0" type="qcurve" smooth="yes"/>
      <point x="1459.68" y="542.0" type="line" smooth="yes"/>
      <point x="1459.68" y="772.0"/>
      <point x="1125.88" y="1072.0"/>
      <point x="847.28" y="1072.0" type="qcurve" smooth="yes"/>
      <point x="672.6" y="1072.0"/>
      <point x="412.6" y="962.18"/>
      <point x="347.48" y="885.0" type="qcurve"/>
      <point x="346.48" y="885.0" type="line"/>
      <point x="335.48" y="1052.0" type="line"/>
      <point x="148.0" y="1052.0" type="line"/>
    </contour>
    <contour>
      <point x="352.48" y="352.62" type="qcurve"/>
      <point x="352.48" y="699.38" type="line"/>
      <point x="402.48" y="782.38"/>
      <point x="627.48" y="909.38"/>
      <point x="788.48" y="909.38" type="qcurve" smooth="yes"/>
      <point x="1027.48" y="909.38"/>
      <point x="1250.48" y="697.5"/>
      <point x="1250.48" y="542.0" type="qcurve" smooth="yes"/>
      <point x="1250.48" y="510.0" type="line" smooth="yes"/>
      <point x="1250.48" y="354.5"/>
      <point x="1027.48" y="142.62"/>
      <point x="788.48" y="142.62" type="qcurve" smooth="yes"/>
      <point x="627.48" y="142.62"/>
      <point x="401.48" y="269.62"/>
    </contour>
  </outline>
</glyph>
<glyph name="s" format="1">
  <advance width="1352.96"/>
  <unicode hex="0073"/>
  <outline>
    <contour>
      <point x="80.0" y="312.7" type="line"/>
      <point x="80.0" y="307.7" type="line" smooth="yes"/>
      <point x="80.0" y="154.53"/>
      <point x="388.48" y="-30.0"/>
      <point x="683.48" y="-30.0" type="qcurve" smooth="yes"/>
      <point x="977.72" y="-30.0"/>
      <point x="1272.96" y="152.07"/>
      <point x="1272.96" y="293.6" type="qcurve" smooth="yes"/>
      <point x="1272.96" y="433.6"/>
      <point x="1015.4000000000001" y="586.4"/>
      <point x="757.0" y="625.6" type="qcurve" smooth="yes"/>
      <point x="498.6" y="664.8"/>
      <point x="336.48" y="729.1"/>
      <point x="336.48" y="787.3" type="qcurve" smooth="yes"/>
      <point x="336.48" y="845.5"/>
      <point x="499.55773851590106" y="922.08"/>
      <point x="683.48" y="922.08" type="qcurve" smooth="yes"/>
      <point x="866.6683561643836" y="922.08"/>
      <point x="1042.48" y="834.87"/>
      <point x="1042.48" y="757.3" type="qcurve" smooth="yes"/>
      <point x="1042.48" y="752.3" type="line"/>
      <point x="1245.96" y="752.3" type="line"/>
      <point x="1245.96" y="757.3" type="line" smooth="yes"/>
      <point x="1245.96" y="898.47"/>
      <point x="936.796" y="1082.0"/>
      <point x="683.48" y="1082.0" type="qcurve" smooth="yes"/>
      <point x="429.96000000000004" y="1082.0"/>
      <point x="132.0" y="907.93"/>
      <point x="132.0" y="776.4" type="qcurve" smooth="yes"/>
      <point x="132.0" y="646.4"/>
      <point x="386.8" y="498.25"/>
      <point x="645.2" y="459.05" type="qcurve" smooth="yes"/>
      <point x="903.6" y="419.85"/>
      <point x="1068.48" y="350.9"/>
      <point x="1068.48" y="282.7" type="qcurve" smooth="yes"/>
      <point x="1068.48" y="214.5"/>
      <point x="863.8730817610063" y="129.92000000000002"/>
      <point x="683.48" y="129.92000000000002" type="qcurve" smooth="yes"/>
      <point x="503.2089156626506" y="129.92000000000002"/>
      <point x="284.48" y="219.31"/>
      <point x="284.48" y="307.7" type="qcurve" smooth="yes"/>
      <point x="284.48" y="312.7" type="line"/>
    </contour>
  </outline>
</glyph>
<glyph name="x" format="1">
  <advance width="1320.0"/>
  <unicode hex="0078"/>
  <outline>
    <contour>
      <point x="20.0" y="0.0" type="line"/>
      <point x="271.6" y="0.0" type="line"/>
      <point x="706.6" y="484.0" type="line"/>
      <point x="740.0" y="484.0" type="line"/>
      <point x="1272.0" y="1052.0" type="line"/>
      <point x="1021.4000000000001" y="1052.0" type="line"/>
      <point x="599.4" y="582.0" type="line"/>
      <point x="566.0" y="582.0" type="line"/>
    </contour>
    <contour>
      <point x="48.0" y="1052.0" type="line"/>
      <point x="580.0" y="484.0" type="line"/>
      <point x="610.0" y="484.0" type="line"/>
      <point x="1036.0" y="0.0" type="line"/>
      <point x="1300.0" y="0.0" type="line"/>
      <point x="754.0" y="582.0" type="line"/>
      <point x="724.0" y="582.0" type="line"/>
      <point x="312.0" y="1052.0" type="line"/>
    </contour>
  </outline>
</glyph>
<glyph name="braceleft" format="1">
  <advance width="714.64"/>
  <unicode hex="007B"/>
  <outline>
    <contour>
      <point x="782.64" y="-312.0" type="qcurve"/>
      <point x="782.64" y="-157.54" type="line"/>
      <point x="540.36" y="-157.54"/>
      <point x="372.56" y="14.490000000000006"/>
      <point x="421.84000000000003" y="166.6" type="qcurve" smooth="yes"/>
      <point x="476.64" y="334.0" type="line" smooth="yes"/>
      <point x="501.64" y="417.09"/>
      <point x="430.64" y="558.0"/>
      <point x="335.64" y="574.0" type="qcurve"/>
      <point x="430.64" y="590.0"/>
      <point x="503.64" y="731.91"/>
      <point x="476.64" y="814.0" type="qcurve" smooth="yes"/>
      <point x="421.84000000000003" y="981.4" type="line" smooth="yes"/>
      <point x="372.56" y="1133.51"/>
      <point x="540.36" y="1305.54"/>
      <point x="782.64" y="1305.54" type="qcurve"/>
      <point x="782.64" y="1460.0" type="line"/>
      <point x="460.56" y="1460.0"/>
      <point x="154.12" y="1178.8"/>
      <point x="217.6" y="985.0" type="qcurve" smooth="yes"/>
      <point x="272.4" y="817.6" type="line" smooth="yes"/>
      <point x="303.4" y="710.69"/>
      <point x="149.07999999999998" y="643.6"/>
      <point x="11.0" y="643.6" type="qcurve"/>
      <point x="11.0" y="504.4" type="line"/>
      <point x="149.07999999999998" y="504.4"/>
      <point x="303.4" y="437.31"/>
      <point x="272.4" y="330.4" type="qcurve" smooth="yes"/>
      <point x="217.6" y="163.0" type="line" smooth="yes"/>
      <point x="154.12" y="-30.8"/>
      <point x="460.56" y="-312.0"/>
    </contour>
  </outline>
</glyph>
<glyph name="currency" format="1">
  <advance width="1811.6"/>
  <unicode hex="00A4"/>
  <outline>
    <contour>
      <point x="152.0" y="610.0" type="qcurve" smooth="yes"/>
      <point x="152.0" y="355.0"/>
      <point x="579.48" y="0.0"/>
      <point x="905.8" y="0.0" type="qcurve" smooth="yes"/>
      <point x="1232.1200000000001" y="0.0"/>
      <point x="1660.6" y="355.0"/>
      <point x="1660.6" y="610.0" type="qcurve" smooth="yes"/>
      <point x="1660.6" y="865.0"/>
      <point x="1232.1200000000001" y="1220.0"/>
      <point x="905.8" y="1220.0" type="qcurve" smooth="yes"/>
      <point x="579.48" y="1220.0"/>
      <point x="152.0" y="865.0"/>
    </contour>
    <contour>
      <point x="348.8" y="610.0" type="qcurve" smooth="yes"/>
      <point x="348.8" y="795.41"/>
      <point x="661.024609375" y="1049.2"/>
      <point x="905.8" y="1049.2" type="qcurve" smooth="yes"/>
      <point x="1150.536842105263" y="1049.2"/>
      <point x="1463.8" y="795.41"/>
      <point x="1463.8" y="610.0" type="qcurve" smooth="yes"/>
      <point x="1463.8" y="424.59000000000003"/>
      <point x="1150.536842105263" y="170.8"/>
      <point x="905.8" y="170.8" type="qcurve" smooth="yes"/>
      <point x="661.024609375" y="170.8"/>
      <point x="348.8" y="424.59000000000003"/>
    </contour>
    <contour>
      <point x="111.2" y="1117.2" type="line"/>
      <point x="359.2" y="919.2" type="line"/>
      <point x="499.20000000000005" y="1051.6" type="line"/>
      <point x="252.20000000000002" y="1249.6" type="line"/>
    </contour>
    <contour>
      <point x="1312.4" y="1051.6" type="line"/>
      <point x="1453.4" y="919.2" type="line"/>
      <point x="1700.4" y="1117.2" type="line"/>
      <point x="1559.4" y="1249.6" type="line"/>
    </contour>
    <contour>
      <point x="1312.4" y="168.4" type="line"/>
      <point x="1559.4" y="-29.6" type="line"/>
      <point x="1700.4" y="102.8" type="line"/>
      <point x="1453.4" y="300.8" type="line"/>
    </contour>
    <contour>
      <point x="111.2" y="102.8" type="line"/>
      <point x="252.20000000000002" y="-29.6" type="line"/>
      <point x="499.20000000000005" y="168.4" type="line"/>
      <point x="359.2" y="300.8" type="line"/>
    </contour>
  </outline>
</glyph>
<glyph name="yen" format="1">
  <advance width="1123.04"/>
  <unicode hex="00A5"/>
  <outline>
    <contour>
      <point x="-59.19999999999999" y="262.82" type="line"/>
      <point x="1180.24" y="262.82" type="line"/>
      <point x="1180.24" y="416.36" type="line"/>
      <point x="-59.19999999999999" y="416.36" type="line"/>
    </contour>
    <contour>
      <point x="-59.19999999999999" y="579.12" type="line"/>
      <point x="1180.24" y="579.12" type="line"/>
      <point x="1180.24" y="732.66" type="line"/>
      <point x="-59.19999999999999" y="732.66" type="line"/>
    </contour>
    <contour>
      <point x="457.8" y="0.0" type="line"/>
      <point x="665.24" y="0.0" type="line"/>
      <point x="665.24" y="584.4399999999999" type="line"/>
      <point x="1232.04" y="1456.0" type="line"/>
      <point x="1040.68" y="1456.0" type="line"/>
      <point x="632.76" y="867.4" type="line" smooth="yes"/>
      <point x="610.64" y="834.58"/>
      <point x="582.4" y="777.4"/>
      <point x="567.52" y="747.4" type="qcurve"/>
      <point x="559.52" y="747.4" type="line"/>
      <point x="544.64" y="777.4"/>
      <point x="515.4" y="834.58"/>
      <point x="494.28000000000003" y="867.4" type="qcurve" smooth="yes"/>
      <point x="106.88000000000002" y="1456.0" type="line"/>
      <point x="-110.0" y="1456.0" type="line"/>
      <point x="457.8" y="583.4399999999999" type="line"/>
    </contour>
  </outline>
</glyph>
<glyph name="ordfeminine" format="1">
  <advance width="1143.4"/>
  <unicode hex="00AA"/>
  <outline>
    <contour>
      <point x="66.0" y="870.0" type="qcurve" smooth="yes"/>
      <point x="66.0" y="744.0"/>
      <point x="289.08" y="611.0"/>
      <point x="449.0" y="611.0" type="qcurve" smooth="yes"/>
      <point x="600.8401183431954" y="611.0"/>
      <point x="797.0949107460531" y="686.5744568902418"/>
      <point x="834.8" y="740.0" type="qcurve"/>
      <point x="838.8" y="709.0"/>
      <point x="860.8" y="646.0"/>
      <point x="874.8" y="627.0" type="qcurve"/>
      <point x="1053.4" y="627.0" type="line"/>
      <point x="1053.4" y="639.0" type="line"/>
      <point x="1036.4" y="674.0"/>
      <point x="1016.4000000000001" y="764.0"/>
      <point x="1016.4000000000001" y="815.0" type="qcurve" smooth="yes"/>
      <point x="1016.4000000000001" y="1192.0" type="line" smooth="yes"/>
      <point x="1016.4000000000001" y="1333.0"/>
      <point x="786.24" y="1476.0"/>
      <point x="578.8" y="1476.0" type="qcurve" smooth="yes"/>
      <point x="371.0" y="1476.0"/>
      <point x="126.0" y="1323.46"/>
      <point x="126.0" y="1221.1" type="qcurve" smooth="yes"/>
      <point x="126.0" y="1215.1" type="line"/>
      <point x="312.8" y="1215.1" type="line"/>
      <point x="312.8" y="1221.1" type="line" smooth="yes"/>
      <point x="312.8" y="1267.38"/>
      <point x="433.72201834862386" y="1337.3"/>
      <point x="573.8" y="1337.3" type="qcurve" smooth="yes"/>
      <point x="715.5102803738318" y="1337.3"/>
      <point x="830.8" y="1255.29"/>
      <point x="830.8" y="1191.1" type="qcurve" smooth="yes"/>
      <point x="830.8" y="1135.0" type="line"/>
      <point x="553.8" y="1135.0" type="line" smooth="yes"/>
      <point x="341.48" y="1135.0"/>
      <point x="66.0" y="996.0"/>
    </contour>
    <contour>
      <point x="254.8" y="878.0" type="qcurve" smooth="yes"/>
      <point x="254.8" y="937.6921276595745"/>
      <point x="416.594964028777" y="1009.3"/>
      <point x="573.8" y="1009.3" type="qcurve" smooth="yes"/>
      <point x="830.8" y="1009.3" type="line"/>
      <point x="830.8" y="913.9" type="line"/>
      <point x="830.8" y="854.89"/>
      <point x="629.1156028368794" y="750.6"/>
      <point x="505.8" y="750.6" type="qcurve" smooth="yes"/>
      <point x="376.7142857142857" y="750.6"/>
      <point x="254.8" y="817.6877227722772"/>
    </contour>
  </outline>
</glyph>
<glyph name="mu.math" format="1">
  <advance width="1397.96"/>
  <unicode hex="00B5"/>
  <outline>
    <contour>
      <point x="148.0" y="-416.0" type="line"/>
      <point x="344.48" y="-416.0" type="line"/>
      <point x="344.48" y="71.2" type="line"/>
      <point x="399.0" y="30.46"/>
      <point x="549.48" y="-20.0"/>
      <point x="638.48" y="-20.0" type="qcurve" smooth="yes"/>
      <point x="768.48" y="-20.0"/>
      <point x="973.48" y="103.0"/>
      <point x="1046.48" y="194.0" type="qcurve"/>
      <point x="1052.48" y="194.0" type="line"/>
      <point x="1063.48" y="0.0" type="line"/>
      <point x="1249.96" y="0.0" type="line"/>
      <point x="1249.96" y="1052.0" type="line"/>
      <point x="1045.48" y="1052.0" type="line"/>
      <point x="1045.48" y="404.26" type="line"/>
      <point x="1001.48" y="296.26"/>
      <point x="803.48" y="146.26000000000002"/>
      <point x="670.48" y="146.26000000000002" type="qcurve" smooth="yes"/>
      <point x="517.48" y="146.26000000000002"/>
      <point x="352.48" y="297.26"/>
      <point x="352.48" y="471.26" type="qcurve" smooth="yes"/>
      <point x="352.48" y="1052.0" type="line"/>
      <point x="148.0" y="1052.0" type="line"/>
    </contour>
  </outline>
</glyph>
<glyph name="Oslash" format="1">
  <advance width="1844.8400000000001"/>
  <unicode hex="00D8"/>
  <outline>
    <contour>
      <point x="126.52000000000001" y="-80.0" type="line"/>
      <point x="359.32000000000005" y="-80.0" type="line"/>
      <point x="550.32" y="150.0" type="line"/>
      <point x="540.32" y="150.0" type="line"/>
      <point x="1025.32" y="726.0" type="line"/>
      <point x="820.52" y="726.0" type="line"/>
      <point x="418.52" y="250.0" type="line"/>
      <point x="406.52" y="250.0" type="line"/>
    </contour>
    <contour>
      <point x="820.52" y="726.0" type="line"/>
      <point x="1025.32" y="726.0" type="line"/>
      <point x="1426.3200000000002" y="1202.0" type="line"/>
      <point x="1437.3200000000002" y="1202.0" type="line"/>
      <point x="1718.3200000000002" y="1532.0" type="line"/>
      <point x="1486.52" y="1532.0" type="line"/>
      <point x="1295.52" y="1302.0" type="line"/>
      <point x="1306.52" y="1302.0" type="line"/>
    </contour>
    <contour>
      <point x="134.0" y="682.0" type="line" smooth="yes"/>
      <point x="134.0" y="346.0"/>
      <point x="577.16" y="-30.0"/>
      <point x="921.9200000000001" y="-30.0" type="qcurve" smooth="yes"/>
      <point x="1266.68" y="-30.0"/>
      <point x="1710.8400000000001" y="346.0"/>
      <point x="1710.8400000000001" y="682.0" type="qcurve" smooth="yes"/>
      <point x="1710.8400000000001" y="774.0" type="line" smooth="yes"/>
      <point x="1710.8400000000001" y="1110.0"/>
      <point x="1266.68" y="1486.0"/>
      <point x="921.9200000000001" y="1486.0" type="qcurve" smooth="yes"/>
      <point x="577.16" y="1486.0"/>
      <point x="134.0" y="1110.0"/>
      <point x="134.0" y="774.0" type="qcurve" smooth="yes"/>
    </contour>
    <contour>
      <point x="347.92" y="682.0" type="qcurve" smooth="yes"/>
      <point x="347.92" y="774.0" type="line" smooth="yes"/>
      <point x="347.92" y="1025.14"/>
      <point x="665.9200000000001" y="1311.56"/>
      <point x="921.9200000000001" y="1311.56" type="qcurve" smooth="yes"/>
      <point x="1178.92" y="1311.56"/>
      <point x="1496.92" y="1025.14"/>
      <point x="1496.92" y="774.0" type="qcurve" smooth="yes"/>
      <point x="1496.92" y="682.0" type="line" smooth="yes"/>
      <point x="1496.92" y="430.86"/>
      <point x="1177.92" y="144.44"/>
      <point x="921.9200000000001" y="144.44" type="qcurve" smooth="yes"/>
      <point x="665.9200000000001" y="144.44"/>
      <point x="347.92" y="430.86"/>
    </contour>
  </outline>
</glyph>
<glyph name="germandbls" format="1">
  <advance width="1496.28"/>
  <unicode hex="00DF"/>
  <outline>
    <contour>
      <point x="140.0" y="0.0" type="line"/>
      <point x="344.48" y="0.0" type="line"/>
      <point x="344.48" y="1106.4" type="line" smooth="yes"/>
      <point x="344.48" y="1253.2674757281554"/>
      <point x="511.47625468164796" y="1394.28"/>
      <point x="658.48" y="1394.28" type="qcurve" smooth="yes"/>
      <point x="804.0561316872428" y="1394.28"/>
      <point x="941.48" y="1284.42"/>
      <point x="941.48" y="1207.3" type="qcurve" smooth="yes"/>
      <point x="941.48" y="1152.02"/>
      <point x="896.1395464641516" y="1066.59571142618"/>
      <point x="866.48" y="1029.0" type="qcurve" smooth="yes"/>
      <point x="832.2719262791325" y="985.0181909303132"/>
      <point x="774.48" y="888.0"/>
      <point x="774.48" y="822.0" type="qcurve" smooth="yes"/>
      <point x="774.48" y="730.0"/>
      <point x="890.48" y="603.0"/>
      <point x="964.48" y="553.0" type="qcurve" smooth="yes"/>
      <point x="1052.178239375943" y="494.19075582306476"/>
      <point x="1210.48" y="386.35"/>
      <point x="1210.48" y="311.6" type="qcurve" smooth="yes"/>
      <point x="1210.48" y="236.85"/>
      <point x="1057.1409375" y="141.72"/>
      <point x="910.88" y="141.72" type="qcurve" smooth="yes"/>
      <point x="818.1600000000001" y="141.72"/>
      <point x="658.72" y="191.63"/>
      <point x="616.48" y="215.72" type="qcurve"/>
      <point x="541.48" y="60.0" type="line"/>
      <point x="591.48" y="30.0"/>
      <point x="801.28" y="-20.0"/>
      <point x="926.28" y="-20.0" type="qcurve" smooth="yes"/>
      <point x="1136.68" y="-20.0"/>
      <point x="1416.28" y="150.0"/>
      <point x="1416.28" y="316.0" type="qcurve" smooth="yes"/>
      <point x="1416.28" y="436.0"/>
      <point x="1218.28" y="593.0"/>
      <point x="1122.28" y="657.0" type="qcurve" smooth="yes"/>
      <point x="1066.28" y="695.0"/>
      <point x="978.28" y="769.0"/>
      <point x="978.28" y="820.0" type="qcurve" smooth="yes"/>
      <point x="978.28" y="867.0"/>
      <point x="1022.28" y="939.0"/>
      <point x="1049.28" y="975.0" type="qcurve" smooth="yes"/>
      <point x="1082.28" y="1019.0"/>
      <point x="1139.28" y="1130.0"/>
      <point x="1139.28" y="1220.0" type="qcurve" smooth="yes"/>
      <point x="1139.28" y="1360.0"/>
      <point x="880.6019512195122" y="1556.0"/>
      <point x="658.48" y="1556.0" type="qcurve" smooth="yes"/>
      <point x="438.68" y="1556.0"/>
      <point x="140.0" y="1328.1757847533631"/>
      <point x="140.0" y="1106.4" type="qcurve" smooth="yes"/>
    </contour>
  </outline>
</glyph>
<glyph name="divide" format="1">
  <advance width="1170.0"/>
  <unicode hex="00F7"/>
  <outline>
    <contour>
      <point x="-38.80000000000001" y="586.78" type="line"/>
      <point x="1208.8" y="586.78" type="line"/>
      <point x="1208.8" y="761.22" type="line"/>
      <point x="-38.80000000000001" y="761.22" type="line"/>
    </contour>
    <contour>
      <point x="450.56" y="287.58" type="qcurve" smooth="yes"/>
      <point x="450.56" y="235.88"/>
      <point x="519.96" y="162.1"/>
      <point x="585.0" y="162.1" type="qcurve" smooth="yes"/>
      <point x="650.04" y="162.1"/>
      <point x="719.44" y="235.88"/>
      <point x="719.44" y="287.58" type="qcurve" smooth="yes"/>
      <point x="719.44" y="339.28"/>
      <point x="650.04" y="413.06"/>
      <point x="585.0" y="413.06" type="qcurve" smooth="yes"/>
      <point x="519.96" y="413.06"/>
      <point x="450.56" y="339.28"/>
    </contour>
    <contour>
      <point x="450.56" y="1060.42" type="qcurve" smooth="yes"/>
      <point x="450.56" y="1008.72"/>
      <point x="519.96" y="934.9399999999999"/>
      <point x="585.0" y="934.9399999999999" type="qcurve" smooth="yes"/>
      <point x="650.04" y="934.9399999999999"/>
      <point x="719.44" y="1008.72"/>
      <point x="719.44" y="1060.42" type="qcurve" smooth="yes"/>
      <point x="719.44" y="1112.1200000000001"/>
      <point x="650.04" y="1185.9"/>
      <point x="585.0" y="1185.9" type="qcurve" smooth="yes"/>
      <point x="519.96" y="1185.9"/>
      <point x="450.56" y="1112.1200000000001"/>
    </contour>
  </outline>
</glyph>
<glyph name="thorn" format="1">
  <advance width="1441.68"/>
  <unicode hex="00FE"/>
  <outline>
    <contour>
      <point x="148.0" y="-416.0" type="line"/>
      <point x="352.48" y="-416.0" type="line"/>
      <point x="352.48" y="133.0" type="line"/>
      <point x="401.72" y="73.73"/>
      <point x="640.6" y="-20.0"/>
      <point x="792.28" y="-20.0" type="qcurve" smooth="yes"/>
      <point x="1048.88" y="-20.0"/>
      <point x="1356.68" y="284.0"/>
      <point x="1356.68" y="510.0" type="qcurve" smooth="yes"/>
      <point x="1356.68" y="542.0" type="line" smooth="yes"/>
      <point x="1356.68" y="768.0"/>
      <point x="1048.88" y="1072.0"/>
      <point x="792.28" y="1072.0" type="qcurve" smooth="yes"/>
      <point x="640.6" y="1072.0"/>
      <point x="402.20000000000005" y="974.18"/>
      <point x="352.48" y="915.1" type="qcurve"/>
      <point x="352.48" y="1536.0" type="line"/>
      <point x="148.0" y="1536.0" type="line"/>
    </contour>
    <contour>
      <point x="352.48" y="322.62" type="qcurve"/>
      <point x="352.48" y="729.38" type="line"/>
      <point x="391.48" y="800.38"/>
      <point x="595.48" y="909.38"/>
      <point x="737.48" y="909.38" type="qcurve" smooth="yes"/>
      <point x="949.48" y="909.38"/>
      <point x="1147.48" y="697.5"/>
      <point x="1147.48" y="542.0" type="qcurve" smooth="yes"/>
      <point x="1147.48" y="510.0" type="line" smooth="yes"/>
      <point x="1147.48" y="354.5"/>
      <point x="949.48" y="142.62"/>
      <point x="737.48" y="142.62" type="qcurve" smooth="yes"/>
      <point x="595.48" y="142.62"/>
      <point x="391.48" y="251.62"/>
    </contour>
  </outline>
</glyph>
<glyph name="oe" format="1">
  <advance width="2259.8"/>
  <unicode hex="0153"/>
  <outline>
    <contour>
      <point x="85.0" y="510.0" type="line" smooth="yes"/>
      <point x="85.0" y="272.0"/>
      <point x="419.44" y="-30.0"/>
      <point x="698.2" y="-30.0" type="qcurve" smooth="yes"/>
      <point x="862.6800000000001" y="-30.0"/>
      <point x="1115.52" y="97.45"/>
      <point x="1196.0" y="204.0" type="qcurve"/>
      <point x="1271.3600000000001" y="99.36"/>
      <point x="1516.08" y="-30.0"/>
      <point x="1685.8000000000002" y="-30.0" type="qcurve" smooth="yes"/>
      <point x="1868.2" y="-30.0"/>
      <point x="2124.6" y="102.28"/>
      <point x="2186.2" y="175.0" type="qcurve"/>
      <point x="2054.2" y="284.0" type="line"/>
      <point x="1998.08" y="223.64000000000001"/>
      <point x="1815.64" y="130.82"/>
      <point x="1685.8000000000002" y="130.82" type="qcurve" smooth="yes"/>
      <point x="1484.8000000000002" y="130.82"/>
      <point x="1294.8000000000002" y="350.69"/>
      <point x="1294.8000000000002" y="510.0" type="qcurve" smooth="yes"/>
      <point x="1294.8000000000002" y="542.0" type="line" smooth="yes"/>
      <point x="1294.8000000000002" y="701.31"/>
      <point x="1476.4" y="921.18"/>
      <point x="1650.0" y="921.18" type="qcurve" smooth="yes"/>
      <point x="1830.52" y="921.18"/>
      <point x="1986.8000000000002" y="757.75"/>
      <point x="1986.8000000000002" y="634.7" type="qcurve"/>
      <point x="1986.8000000000002" y="634.7" type="line"/>
      <point x="1210.0" y="634.7" type="line"/>
      <point x="1210.0" y="478.42" type="line"/>
      <point x="2199.8" y="478.42" type="line"/>
      <point x="2199.8" y="560.0" type="line" smooth="yes"/>
      <point x="2199.8" y="800.0"/>
      <point x="1913.8000000000002" y="1082.0"/>
      <point x="1650.0" y="1082.0" type="qcurve" smooth="yes"/>
      <point x="1501.16" y="1082.0"/>
      <point x="1272.48" y="952.64"/>
      <point x="1197.0" y="848.0" type="qcurve"/>
      <point x="1116.52" y="954.55"/>
      <point x="862.6800000000001" y="1082.0"/>
      <point x="698.2" y="1082.0" type="qcurve" smooth="yes"/>
      <point x="419.44" y="1082.0"/>
      <point x="85.0" y="780.0"/>
      <point x="85.0" y="542.0" type="qcurve" smooth="yes"/>
    </contour>
    <contour>
      <point x="294.20000000000005" y="510.0" type="qcurve" smooth="yes"/>
      <point x="294.20000000000005" y="542.0" type="line" smooth="yes"/>
      <point x="294.20000000000005" y="700.5"/>
      <point x="497.20000000000005" y="919.38"/>
      <point x="698.2" y="919.38" type="qcurve" smooth="yes"/>
      <point x="899.2" y="919.38"/>
      <point x="1103.2" y="700.5"/>
      <point x="1103.2" y="542.0" type="qcurve" smooth="yes"/>
      <point x="1103.2" y="510.0" type="line" smooth="yes"/>
      <point x="1103.2" y="351.5"/>
      <point x="899.2" y="132.62"/>
      <point x="698.2" y="132.62" type="qcurve" smooth="yes"/>
      <point x="497.20000000000005" y="132.62"/>
      <point x="294.20000000000005" y="351.5"/>
    </contour>
  </outline>
</glyph>
<glyph name="ring" format="1">
  <advance width="1144.0"/>
  <unicode hex="02DA"/>
  <outline>
    <contour>
      <point x="260.48" y="1361.9" type="qcurve" smooth="yes"/>
      <point x="260.48" y="1260.56"/>
      <point x="442.2" y="1127.5"/>
      <point x="572.0" y="1127.5" type="qcurve" smooth="yes"/>
      <point x="701.8" y="1127.5"/>
      <point x="883.52" y="1260.56"/>
      <point x="883.52" y="1361.9" type="qcurve" smooth="yes"/>
      <point x="883.52" y="1463.24"/>
      <point x="701.8" y="1596.3"/>
      <point x="572.0" y="1596.3" type="qcurve" smooth="yes"/>
      <point x="442.2" y="1596.3"/>
      <point x="260.48" y="1463.24"/>
    </contour>
    <contour>
      <point x="396.0" y="1361.9" type="qcurve" smooth="yes"/>
      <point x="396.0" y="1412.63"/>
      <point x="496.0" y="1478.18"/>
      <point x="572.0" y="1478.18" type="qcurve" smooth="yes"/>
      <point x="648.0" y="1478.18"/>
      <point x="748.0" y="1412.63"/>
      <point x="748.0" y="1361.9" type="qcurve" smooth="yes"/>
      <point x="748.0" y="1311.17"/>
      <point x="648.0" y="1245.62"/>
      <point x="572.0" y="1245.62" type="qcurve" smooth="yes"/>
      <point x="496.0" y="1245.62"/>
      <point x="396.0" y="1311.17"/>
    </contour>
    <contour>
      <point x="572.0" y="1052.0" type="move" name="_top"/>
    </contour>
  </outline>
</glyph>
<glyph name="quoteleft" format="1">
  <advance width="452.96000000000004"/>
  <unicode hex="2018"/>
  <outline>
    <contour>
      <point x="120.0" y="1037.45" type="line"/>
      <point x="312.96000000000004" y="1037.45" type="line"/>
      <point x="312.96000000000004" y="1166.27" type="line" smooth="yes"/>
      <point x="312.96000000000004" y="1258.25"/>
      <point x="366.16" y="1395.67"/>
      <point x="415.96000000000004" y="1460.93" type="qcurve"/>
      <point x="302.08" y="1539.06" type="line"/>
      <point x="219.48" y="1470.17"/>
      <point x="120.0" y="1279.87"/>
      <point x="120.0" y="1166.27" type="qcurve" smooth="yes"/>
    </contour>
  </outline>
</glyph>
<glyph name="quotedblleft" format="1">
  <advance width="845.9200000000001"/>
  <unicode hex="201C"/>
  <outline>
    <contour>
      <point x="120.0" y="1037.45" type="line"/>
      <point x="312.96000000000004" y="1037.45" type="line"/>
      <point x="312.96000000000004" y="1166.27" type="line" smooth="yes"/>
      <point x="312.96000000000004" y="1258.25"/>
      <point x="366.16" y="1395.67"/>
      <point x="415.96000000000004" y="1460.93" type="qcurve"/>
      <point x="302.08" y="1539.06" type="line"/>
      <point x="219.48" y="1470.17"/>
      <point x="120.0" y="1279.87"/>
      <point x="120.0" y="1166.27" type="qcurve" smooth="yes"/>
    </contour>
    <contour>
      <point x="512.96" y="1037.45" type="line"/>
      <point x="705.9200000000001" y="1037.45" type="line"/>
      <point x="705.9200000000001" y="1166.27" type="line" smooth="yes"/>
      <point x="705.9200000000001" y="1258.25"/>
      <point x="759.12" y="1395.67"/>
      <point x="808.9200000000001" y="1460.93" type="qcurve"/>
      <point x="695.04" y="1539.06" type="line"/>
      <point x="612.44" y="1470.17"/>
      <point x="512.96" y="1279.87"/>
      <point x="512.96" y="1166.27" type="qcurve" smooth="yes"/>
    </contour>
  </outline>
</glyph>
<glyph name="quotedblbase" format="1">
  <advance width="845.9200000000001"/>
  <unicode hex="201E"/>
  <outline>
    <contour>
      <point x="37.0" y="-193.58" type="qcurve"/>
      <point x="150.88" y="-271.71000000000004" type="line"/>
      <point x="233.48000000000002" y="-202.82"/>
      <point x="332.96000000000004" y="-12.520000000000003"/>
      <point x="332.96000000000004" y="101.08" type="qcurve" smooth="yes"/>
      <point x="332.96000000000004" y="229.9" type="line"/>
      <point x="140.0" y="229.9" type="line"/>
      <point x="140.0" y="101.08" type="line" smooth="yes"/>
      <point x="140.0" y="9.1"/>
      <point x="86.8" y="-128.32"/>
    </contour>
    <contour>
      <point x="429.96000000000004" y="-193.58" type="qcurve"/>
      <point x="543.84" y="-271.71000000000004" type="line"/>
      <point x="626.44" y="-202.82"/>
      <point x="725.9200000000001" y="-12.520000000000003"/>
      <point x="725.9200000000001" y="101.08" type="qcurve" smooth="yes"/>
      <point x="725.9200000000001" y="229.9" type="line"/>
      <point x="532.96" y="229.9" type="line"/>
      <point x="532.96" y="101.08" type="line" smooth="yes"/>
      <point x="532.96" y="9.1"/>
      <point x="479.76" y="-128.32"/>
    </contour>
  </outline>
</glyph>
<glyph name="bullet" format="1">
  <advance width="781.6800000000001"/>
  <unicode hex="2022"/>
  <outline>
    <contour>
      <point x="164.0" y="733.1" type="line" smooth="yes"/>
      <point x="164.0" y="643.23"/>
      <point x="291.2" y="526.1899999999999"/>
      <point x="390.84000000000003" y="526.1899999999999" type="qcurve" smooth="yes"/>
      <point x="490.48" y="526.1899999999999"/>
      <point x="617.6800000000001" y="643.23"/>
      <point x="617.6800000000001" y="733.1" type="qcurve" smooth="yes"/>
      <point x="617.6800000000001" y="774.9" type="line" smooth="yes"/>
      <point x="617.6800000000001" y="864.77"/>
      <point x="490.48" y="981.8100000000001"/>
      <point x="390.84000000000003" y="981.8100000000001" type="qcurve" smooth="yes"/>
      <point x="291.2" y="981.8100000000001"/>
      <point x="164.0" y="864.77"/>
      <point x="164.0" y="774.9" type="qcurve" smooth="yes"/>
    </contour>
  </outline>
</glyph>
<glyph name="ellipsis" format="1">
  <advance width="1805.52"/>
  <unicode hex="2026"/>
  <outline>
    <contour>
      <point x="160.0" y="109.75" type="qcurve" smooth="yes"/>
      <point x="160.0" y="54.96"/>
      <point x="232.64000000000001" y="-22.0"/>
      <point x="300.92" y="-22.0" type="qcurve" smooth="yes"/>
      <point x="369.2" y="-22.0"/>
      <point x="441.84000000000003" y="54.96"/>
      <point x="441.84000000000003" y="109.75" type="qcurve" smooth="yes"/>
      <point x="441.84000000000003" y="164.54000000000002"/>
      <point x="369.2" y="241.5"/>
      <point x="300.92" y="241.5" type="qcurve" smooth="yes"/>
      <point x="232.64000000000001" y="241.5"/>
      <point x="160.0" y="164.54000000000002"/>
    </contour>
    <contour>
      <point x="761.84" y="109.75" type="qcurve" smooth="yes"/>
      <point x="761.84" y="54.96"/>
      <point x="834.48" y="-22.0"/>
      <point x="902.76" y="-22.0" type="qcurve" smooth="yes"/>
      <point x="971.0400000000001" y="-22.0"/>
      <point x="1043.68" y="54.96"/>
      <point x="1043.68" y="109.75" type="qcurve" smooth="yes"/>
      <point x="1043.68" y="164.54000000000002"/>
      <point x="971.0400000000001" y="241.5"/>
      <point x="902.76" y="241.5" type="qcurve" smooth="yes"/>
      <point x="834.48" y="241.5"/>
      <point x="761.84" y="164.54000000000002"/>
    </contour>
    <contour>
      <point x="1363.68" y="109.75" type="qcurve" smooth="yes"/>
      <point x="1363.68" y="54.96"/>
      <point x="1436.32" y="-22.0"/>
      <point x="1504.6000000000001" y="-22.0" type="qcurve" smooth="yes"/>
      <point x="1572.88" y="-22.0"/>
      <point x="1645.52" y="54.96"/>
      <point x="1645.52" y="109.75" type="qcurve" smooth="yes"/>
      <point x="1645.52" y="164.54000000000002"/>
      <point x="1572.88" y="241.5"/>
      <point x="1504.6000000000001" y="241.5" type="qcurve" smooth="yes"/>
      <point x="1436.32" y="241.5"/>
      <point x="1363.68" y="164.54000000000002"/>
    </contour>
  </outline>
</glyph>
<glyph name="won" format="1">
  <advance width="1816.0"/>
  <unicode hex="20A9"/>
  <outline>
    <contour>
      <point x="415.0" y="-10.0" type="line"/>
      <point x="633.8000000000001" y="-10.0" type="line"/>
      <point x="848.0" y="506.4" type="line" smooth="yes"/>
      <point x="861.76" y="538.4"/>
      <point x="889.76" y="601.4"/>
      <point x="902.0" y="634.4" type="qcurve"/>
      <point x="907.0" y="634.4" type="line"/>
      <point x="918.24" y="601.4"/>
      <point x="946.24" y="538.4"/>
      <point x="960.0" y="506.4" type="qcurve" smooth="yes"/>
      <point x="1174.2" y="-10.0" type="line"/>
      <point x="1401.0" y="-10.0" type="line"/>
      <point x="1708.0" y="1456.0" type="line"/>
      <point x="1526.2" y="1456.0" type="line"/>
      <point x="1297.8" y="281.6" type="line" smooth="yes"/>
      <point x="1290.8" y="247.6"/>
      <point x="1282.8" y="186.6"/>
      <point x="1278.8" y="153.6" type="qcurve"/>
      <point x="1273.8" y="153.6" type="line"/>
      <point x="1265.56" y="186.6"/>
      <point x="1243.56" y="248.6"/>
      <point x="1229.8" y="281.6" type="qcurve" smooth="yes"/>
      <point x="1033.6" y="756.0" type="line"/>
      <point x="789.4" y="756.0" type="line"/>
      <point x="593.2" y="281.6" type="line" smooth="yes"/>
      <point x="579.44" y="248.6"/>
      <point x="557.44" y="186.6"/>
      <point x="549.2" y="153.6" type="qcurve"/>
      <point x="544.2" y="153.6" type="line"/>
      <point x="541.2" y="186.6"/>
      <point x="533.2" y="247.6"/>
      <point x="526.2" y="281.6" type="qcurve" smooth="yes"/>
      <point x="296.8" y="1456.0" type="line"/>
      <point x="108.0" y="1456.0" type="line"/>
    </contour>
    <contour>
      <point x="33.0" y="840.0" type="line"/>
      <point x="1783.0" y="840.0" type="line"/>
      <point x="1783.0" y="1001.76" type="line"/>
      <point x="33.0" y="1001.76" type="line"/>
    </contour>
    <contour>
      <point x="20.0" y="1160.0" type="line"/>
      <point x="1796.0" y="1160.0" type="line"/>
      <point x="1796.0" y="1321.76" type="line"/>
      <point x="20.0" y="1321.76" type="line"/>
    </contour>
  </outline>
</glyph>
<glyph name="Euro" format="1">
  <advance width="1470.8000000000002"/>
  <unicode hex="20AC"/>
  <outline>
    <contour>
      <point x="205.0" y="642.0" type="line" smooth="yes"/>
      <point x="205.0" y="316.0"/>
      <point x="553.8" y="-30.0"/>
      <point x="863.4000000000001" y="-30.0" type="qcurve" smooth="yes"/>
      <point x="1148.4627802690584" y="-30.0"/>
      <point x="1440.8000000000002" y="221.10422535211268"/>
      <point x="1440.8000000000002" y="399.6" type="qcurve" smooth="yes"/>
      <point x="1440.8000000000002" y="409.6" type="line"/>
      <point x="1230.4" y="409.6" type="line"/>
      <point x="1230.4" y="399.6" type="line" smooth="yes"/>
      <point x="1230.4" y="292.15"/>
      <point x="1064.103125" y="143.54000000000002"/>
      <point x="863.4000000000001" y="143.54000000000002" type="qcurve" smooth="yes"/>
      <point x="639.4" y="143.54000000000002"/>
      <point x="415.40000000000003" y="380.99535433070866"/>
      <point x="415.40000000000003" y="642.0" type="qcurve" smooth="yes"/>
      <point x="415.40000000000003" y="814.0" type="line" smooth="yes"/>
      <point x="415.40000000000003" y="1075.0046456692912"/>
      <point x="639.4" y="1312.46"/>
      <point x="863.4000000000001" y="1312.46" type="qcurve" smooth="yes"/>
      <point x="1064.103125" y="1312.46"/>
      <point x="1230.4" y="1163.85"/>
      <point x="1230.4" y="1056.4" type="qcurve" smooth="yes"/>
      <point x="1230.4" y="1046.4" type="line"/>
      <point x="1440.8000000000002" y="1046.4" type="line"/>
      <point x="1440.8000000000002" y="1056.4" type="line" smooth="yes"/>
      <point x="1440.8000000000002" y="1234.8957746478873"/>
      <point x="1148.4627802690584" y="1486.0"/>
      <point x="863.4000000000001" y="1486.0" type="qcurve" smooth="yes"/>
      <point x="553.8" y="1486.0"/>
      <point x="205.0" y="1140.0"/>
      <point x="205.0" y="814.0" type="qcurve" smooth="yes"/>
    </contour>
    <contour>
      <point x="30.0" y="479.7" type="line"/>
      <point x="1088.4" y="479.7" type="line"/>
      <point x="1088.4" y="644.16" type="line"/>
      <point x="30.0" y="644.16" type="line"/>
    </contour>
    <contour>
      <point x="30.0" y="811.84" type="line"/>
      <point x="1088.4" y="811.84" type="line"/>
      <point x="1088.4" y="976.3" type="line"/>
      <point x="30.0" y="976.3" type="line"/>
    </contour>
  </outline>
</glyph>
<glyph name="indianrupee" format="1">
  <advance width="1430.44"/>
  <unicode hex="20B9"/>
  <outline>
    <contour>
      <point x="152.12" y="586.8" type="line"/>
      <point x="888.0" y="0.0" type="line"/>
      <point x="1199.2" y="0.0" type="line"/>
      <point x="461.40000000000003" y="586.8" type="line"/>
      <point x="531.6" y="586.8" type="line" smooth="yes"/>
      <point x="823.4444444444445" y="586.8"/>
      <point x="1137.2" y="826.8118781725889"/>
      <point x="1137.2" y="1020.8" type="qcurve" smooth="yes"/>
      <point x="1137.2" y="1100.416880733945"/>
      <point x="1074.1943647063813" y="1242.5785603771185"/>
      <point x="999.2" y="1291.54" type="qcurve"/>
      <point x="1321.32" y="1291.54" type="line"/>
      <point x="1374.2" y="1456.0" type="line"/>
      <point x="130.0" y="1456.0" type="line"/>
      <point x="77.12" y="1291.54" type="line"/>
      <point x="510.0" y="1291.54" type="line" smooth="yes"/>
      <point x="744.9837837837838" y="1291.54"/>
      <point x="928.0" y="1138.3370786516855"/>
      <point x="928.0" y="1024.4" type="qcurve" smooth="yes"/>
      <point x="928.0" y="910.4034782608695"/>
      <point x="745.0100147195877" y="751.26"/>
      <point x="510.0" y="751.26" type="qcurve" smooth="yes"/>
      <point x="205.0" y="751.26" type="line"/>
    </contour>
    <contour>
      <point x="127.84" y="933.34" type="line"/>
      <point x="1322.04" y="933.34" type="line"/>
      <point x="1374.44" y="1096.9" type="line"/>
      <point x="180.24" y="1096.9" type="line"/>
    </contour>
  </outline>
</glyph>
<glyph name="numero" format="1">
  <advance width="3089.6800000000003"/>
  <unicode hex="2116"/>
  <outline>
    <contour>
      <point x="170.0" y="0.0" type="line"/>
      <point x="371.44" y="0.0" type="line"/>
      <point x="371.44" y="1048.3" type="line" smooth="yes"/>
      <point x="371.44" y="1078.3"/>
      <point x="367.44" y="1153.3"/>
      <point x="363.44" y="1183.3" type="qcurve"/>
      <point x="373.44" y="1183.3" type="line"/>
      <point x="387.44" y="1158.3"/>
      <point x="428.32" y="1100.21"/>
      <point x="453.44" y="1069.3" type="qcurve" smooth="yes"/>
      <point x="1314.44" y="0.0" type="line"/>
      <point x="1540.88" y="0.0" type="line"/>
      <point x="1540.88" y="1456.0" type="line"/>
      <point x="1339.44" y="1456.0" type="line"/>
      <point x="1339.44" y="407.7" type="line" smooth="yes"/>
      <point x="1339.44" y="377.7"/>
      <point x="1343.44" y="294.70000000000005"/>
      <point x="1347.44" y="272.7" type="qcurve"/>
      <point x="1337.44" y="272.7" type="line"/>
      <point x="1323.44" y="297.7"/>
      <point x="1280.68" y="357.7"/>
      <point x="1256.44" y="387.7" type="qcurve" smooth="yes"/>
      <point x="397.44" y="1456.0" type="line"/>
      <point x="170.0" y="1456.0" type="line"/>
    </contour>
    <contour>
      <point x="1790.88" y="125.5" type="line"/>
      <point x="1790.88" y="299.05" type="line"/>
      <point x="2919.6800000000003" y="299.05" type="line"/>
      <point x="2919.6800000000003" y="125.5" type="line"/>
    </contour>
    <contour>
      <point x="1740.88" y="964.0" type="qcurve" smooth="yes"/>
      <point x="1740.88" y="984.0" type="line" smooth="yes"/>
      <point x="1740.88" y="1194.0"/>
      <point x="2067.56" y="1476.0"/>
      <point x="2355.28" y="1476.0" type="qcurve" smooth="yes"/>
      <point x="2643.0" y="1476.0"/>
      <point x="2969.6800000000003" y="1194.0"/>
      <point x="2969.6800000000003" y="984.0" type="qcurve" smooth="yes"/>
      <point x="2969.6800000000003" y="964.0" type="line" smooth="yes"/>
      <point x="2969.6800000000003" y="754.0"/>
      <point x="2643.0" y="472.0"/>
      <point x="2355.28" y="472.0" type="qcurve" smooth="yes"/>
      <point x="2067.56" y="472.0"/>
      <point x="1740.88" y="754.0"/>
    </contour>
    <contour>
      <point x="1935.28" y="964.0" type="line" smooth="yes"/>
      <point x="1935.28" y="817.87"/>
      <point x="2145.28" y="632.82"/>
      <point x="2355.28" y="632.82" type="qcurve" smooth="yes"/>
      <point x="2565.28" y="632.82"/>
      <point x="2775.28" y="817.87"/>
      <point x="2775.28" y="964.0" type="qcurve" smooth="yes"/>
      <point x="2775.28" y="984.0" type="line" smooth="yes"/>
      <point x="2775.28" y="1130.13"/>
      <point x="2565.28" y="1315.18"/>
      <point x="2355.28" y="1315.18" type="qcurve" smooth="yes"/>
      <point x="2145.28" y="1315.18"/>
      <point x="1935.28" y="1130.13"/>
      <point x="1935.28" y="984.0" type="qcurve" smooth="yes"/>
    </contour>
  </outline>
</glyph>
<glyph name="fi" format="1">
  <advance width="1386.96"/>
  <unicode hex="FB01"/>
  <outline>
    <contour>
      <point x="239.0" y="0.0" type="line"/>
      <point x="443.48" y="0.0" type="line"/>
      <point x="443.48" y="964.6899999999999" type="line"/>
      <point x="443.48" y="986.6899999999999" type="line"/>
      <point x="443.48" y="1172.8" type="line" smooth="yes"/>
      <point x="443.48" y="1281.9"/>
      <point x="601.48" y="1391.0"/>
      <point x="762.48" y="1391.0" type="qcurve" smooth="yes"/>
      <point x="845.48" y="1391.0"/>
      <point x="1008.48" y="1360.0"/>
      <point x="1080.48" y="1335.0" type="qcurve"/>
      <point x="1112.48" y="1496.0" type="line"/>
      <point x="1028.267267770972" y="1524.3858693455998"/>
      <point x="845.04" y="1556.0"/>
      <point x="756.48" y="1556.0" type="qcurve" smooth="yes"/>
      <point x="513.08" y="1556.0"/>
      <point x="239.0" y="1360.31"/>
      <point x="239.0" y="1172.8" type="qcurve" smooth="yes"/>
    </contour>
    <contour>
      <point x="25.0" y="899.38" type="line"/>
      <point x="837.48" y="899.38" type="line"/>
      <point x="837.48" y="1052.0" type="line"/>
      <point x="393.24" y="1052.0" type="line"/>
      <point x="335.24" y="1052.0" type="line"/>
      <point x="25.0" y="1052.0" type="line"/>
    </contour>
    <contour>
      <point x="1042.48" y="0.0" type="line"/>
      <point x="1246.96" y="0.0" type="line"/>
      <point x="1246.96" y="1052.0" type="line"/>
      <point x="1042.48" y="1052.0" type="line"/>
    </contour>
  </outline>
</glyph>
<glyph name="bitcoin" format="1">
  <advance width="1489.64"/>
  <outline>
    <contour>
      <point x="170.0" y="0.0" type="line"/>
      <point x="770.44" y="0.0" type="line" smooth="yes"/>
      <point x="1051.08" y="0.0"/>
      <point x="1389.64" y="220.0"/>
      <point x="1389.64" y="420.0" type="qcurve" smooth="yes"/>
      <point x="1389.64" y="560.0"/>
      <point x="1214.64" y="732.0"/>
      <point x="1077.64" y="764.0" type="qcurve"/>
      <point x="1077.64" y="768.0" type="line"/>
      <point x="1189.64" y="800.0"/>
      <point x="1342.64" y="950.0"/>
      <point x="1342.64" y="1070.0" type="qcurve" smooth="yes"/>
      <point x="1342.64" y="1270.0"/>
      <point x="1017.44" y="1456.0"/>
      <point x="733.44" y="1456.0" type="qcurve" smooth="yes"/>
      <point x="170.0" y="1456.0" type="line"/>
    </contour>
    <contour>
      <point x="377.44" y="166.28" type="line"/>
      <point x="377.44" y="676.22" type="line"/>
      <point x="770.44" y="676.22" type="line" smooth="yes"/>
      <point x="983.44" y="676.22"/>
      <point x="1181.44" y="539.46"/>
      <point x="1181.44" y="422.16" type="qcurve" smooth="yes"/>
      <point x="1181.44" y="304.86"/>
      <point x="983.44" y="166.28"/>
      <point x="770.44" y="166.28" type="qcurve" smooth="yes"/>
    </contour>
    <contour>
      <point x="377.44" y="839.78" type="line"/>
      <point x="377.44" y="1289.72" type="line"/>
      <point x="733.44" y="1289.72" type="line" smooth="yes"/>
      <point x="946.44" y="1289.72"/>
      <point x="1133.44" y="1174.6"/>
      <point x="1133.44" y="1067.48" type="qcurve" smooth="yes"/>
      <point x="1133.44" y="960.36"/>
      <point x="946.44" y="839.78"/>
      <point x="733.44" y="839.78" type="qcurve" smooth="yes"/>
    </contour>
    <contour>
      <point x="8.0" y="361.77" type="line"/>
      <point x="294.72" y="361.77" type="line"/>
      <point x="299.72" y="367.3" type="line"/>
      <point x="769.64" y="367.3" type="line"/>
      <point x="769.64" y="520.7" type="line"/>
      <point x="299.72" y="520.7" type="line"/>
      <point x="294.72" y="526.23" type="line"/>
      <point x="8.0" y="526.23" type="line"/>
    </contour>
  </outline>
</glyph>
<glyph name="one.pnum" format="1">
  <advance width="1432.48"/>
  <outline>
    <contour>
      <point x="667.9200000000001" y="0.0" type="line"/>
      <point x="880.08" y="0.0" type="line"/>
      <point x="880.08" y="1476.0" type="line"/>
      <point x="821.6800000000001" y="1476.0" type="line"/>
      <point x="159.92000000000002" y="1276.0" type="line"/>
      <point x="159.92000000000002" y="1081.0" type="line"/>
      <point x="667.9200000000001" y="1250.65" type="line"/>
    </contour>
  </outline>
</glyph>
<glyph name="six.pnum" format="1">
  <advance width="1390.0"/>
  <outline>
    <contour>
      <point x="52.359999999999985" y="614.0" type="line" smooth="yes"/>
      <point x="52.359999999999985" y="274.0"/>
      <point x="441.534375" y="-30.0"/>
      <point x="713.0" y="-30.0" type="qcurve" smooth="yes"/>
      <point x="983.8512396694215" y="-30.0"/>
      <point x="1338.4" y="244.49919028340082"/>
      <point x="1338.4" y="464.9" type="qcurve" smooth="yes"/>
      <point x="1338.4" y="685.3024390243902"/>
      <point x="1023.56" y="957.8"/>
      <point x="765.4" y="957.8" type="qcurve" smooth="yes"/>
      <point x="497.08" y="957.8"/>
      <point x="174.79999999999998" y="685.3024390243902"/>
      <point x="174.79999999999998" y="464.9" type="qcurve"/>
      <point x="254.0" y="464.9" type="line"/>
      <point x="254.0" y="620.4697297297297"/>
      <point x="532.0" y="789.72"/>
      <point x="713.0" y="789.72" type="qcurve" smooth="yes"/>
      <point x="911.0" y="789.72"/>
      <point x="1128.0" y="620.4697297297297"/>
      <point x="1128.0" y="464.9" type="qcurve" smooth="yes"/>
      <point x="1128.0" y="309.2400892857143"/>
      <point x="911.0" y="138.08"/>
      <point x="713.0" y="138.08" type="qcurve" smooth="yes"/>
      <point x="517.0" y="138.08"/>
      <point x="260.0" y="349.50588235294117"/>
      <point x="260.0" y="604.0" type="qcurve" smooth="yes"/>
      <point x="260.0" y="654.0" type="line" smooth="yes"/>
      <point x="260.0" y="998.2982195845698"/>
      <point x="700.0" y="1317.02"/>
      <point x="1079.8" y="1317.02" type="qcurve" smooth="yes"/>
      <point x="1104.8" y="1317.02" type="line"/>
      <point x="1104.8" y="1486.0" type="line"/>
      <point x="1079.8" y="1486.0" type="line" smooth="yes"/>
      <point x="586.8" y="1486.0"/>
      <point x="52.359999999999985" y="1024.0"/>
      <point x="52.359999999999985" y="644.0" type="qcurve" smooth="yes"/>
    </contour>
  </outline>
</glyph>
<glyph name="three.pnum" format="1">
  <advance width="1395.28"/>
  <outline>
    <contour>
      <point x="62.719999999999985" y="383.6" type="line" smooth="yes"/>
      <point x="62.719999999999985" y="201.98"/>
      <point x="409.4267782426778" y="-30.0"/>
      <point x="680.6" y="-30.0" type="qcurve" smooth="yes"/>
      <point x="952.2429752066116" y="-30.0"/>
      <point x="1305.52" y="200.9419068736142"/>
      <point x="1305.52" y="402.71" type="qcurve" smooth="yes"/>
      <point x="1305.52" y="541.0245747800586"/>
      <point x="1113.8769785602055" y="729.7206766700117"/>
      <point x="955.4000000000001" y="762.0" type="qcurve"/>
      <point x="955.4000000000001" y="766.0" type="line"/>
      <point x="1102.4071521194112" y="816.6283762059884"/>
      <point x="1240.76" y="998.74"/>
      <point x="1240.76" y="1098.2" type="qcurve" smooth="yes"/>
      <point x="1240.76" y="1269.01"/>
      <point x="927.4666666666667" y="1486.0"/>
      <point x="680.6" y="1486.0" type="qcurve" smooth="yes"/>
      <point x="434.54246575342466" y="1486.0"/>
      <point x="112.71999999999998" y="1257.93"/>
      <point x="112.71999999999998" y="1096.4" type="qcurve" smooth="yes"/>
      <point x="112.71999999999998" y="1086.4" type="line"/>
      <point x="319.6" y="1086.4" type="line"/>
      <point x="319.6" y="1096.4" type="line" smooth="yes"/>
      <point x="319.6" y="1203.266265060241"/>
      <point x="523.6" y="1317.92"/>
      <point x="680.6" y="1317.92" type="qcurve" smooth="yes"/>
      <point x="840.6" y="1317.92"/>
      <point x="1028.6" y="1203.6161643835617"/>
      <point x="1028.6" y="1087.3" type="qcurve" smooth="yes"/>
      <point x="1028.6" y="970.875"/>
      <point x="816.6" y="840.86"/>
      <point x="620.6" y="840.86" type="qcurve" smooth="yes"/>
      <point x="477.72" y="840.86" type="line"/>
      <point x="477.72" y="676.42" type="line"/>
      <point x="633.6" y="676.42" type="line" smooth="yes"/>
      <point x="842.6" y="676.42"/>
      <point x="1091.6" y="539.0147368421053"/>
      <point x="1091.6" y="403.6" type="qcurve" smooth="yes"/>
      <point x="1091.6" y="267.0105263157895"/>
      <point x="867.6" y="138.08"/>
      <point x="680.6" y="138.08" type="qcurve" smooth="yes"/>
      <point x="494.6" y="138.08"/>
      <point x="269.6" y="266.7263157894737"/>
      <point x="269.6" y="383.6" type="qcurve" smooth="yes"/>
      <point x="269.6" y="393.6" type="line"/>
      <point x="62.719999999999985" y="393.6" type="line"/>
    </contour>
  </outline>
</glyph>
<glyph name="zero.pnum" format="1">
  <advance width="1390.0"/>
  <outline>
    <contour>
      <point x="90.07999999999998" y="580.8" type="line" smooth="yes"/>
      <point x="90.07999999999998" y="297.94"/>
      <point x="410.64" y="-30.0"/>
      <point x="695.0" y="-30.0" type="qcurve" smooth="yes"/>
      <point x="977.24" y="-30.0"/>
      <point x="1299.92" y="297.94"/>
      <point x="1299.92" y="580.8" type="qcurve" smooth="yes"/>
      <point x="1299.92" y="875.2" type="line" smooth="yes"/>
      <point x="1299.92" y="1154.06"/>
      <point x="977.24" y="1486.0"/>
      <point x="695.0" y="1486.0" type="qcurve" smooth="yes"/>
      <point x="410.64" y="1486.0"/>
      <point x="90.07999999999998" y="1154.06"/>
      <point x="90.07999999999998" y="875.2" type="qcurve" smooth="yes"/>
    </contour>
    <contour>
      <point x="303.0" y="570.8" type="qcurve" smooth="yes"/>
      <point x="303.0" y="885.2" type="line" smooth="yes"/>
      <point x="303.0" y="1078.2"/>
      <point x="495.0" y="1317.02"/>
      <point x="695.0" y="1317.02" type="qcurve" smooth="yes"/>
      <point x="895.0" y="1317.02"/>
      <point x="1087.0" y="1078.2"/>
      <point x="1087.0" y="885.2" type="qcurve" smooth="yes"/>
      <point x="1087.0" y="570.8" type="line" smooth="yes"/>
      <point x="1087.0" y="372.89"/>
      <point x="895.0" y="138.98000000000002"/>
      <point x="695.0" y="138.98000000000002" type="qcurve" smooth="yes"/>
      <point x="495.0" y="138.98000000000002"/>
      <point x="303.0" y="372.89"/>
    </contour>
  </outline>
</glyph>
